<?xml version="1.0" encoding="UTF-8" standalone="no"?>
<!-- Created with Inkscape (http://www.inkscape.org/) -->

<svg
   width="210mm"
   height="297mm"
   viewBox="0 0 210 297"
   version="1.1"
   id="svg23063"
   inkscape:version="1.2 (dc2aeda, 2022-05-15)"
   sodipodi:docname="bacillus.svg"
   xmlns:inkscape="http://www.inkscape.org/namespaces/inkscape"
   xmlns:sodipodi="http://sodipodi.sourceforge.net/DTD/sodipodi-0.dtd"
   xmlns="http://www.w3.org/2000/svg"
   xmlns:svg="http://www.w3.org/2000/svg">
  <sodipodi:namedview
     id="namedview23065"
     pagecolor="#ffffff"
     bordercolor="#000000"
     borderopacity="0.25"
     inkscape:showpageshadow="2"
     inkscape:pageopacity="0.0"
     inkscape:pagecheckerboard="0"
     inkscape:deskcolor="#d1d1d1"
     inkscape:document-units="mm"
     showgrid="false"
     inkscape:zoom="0.5404406"
     inkscape:cx="395.97321"
     inkscape:cy="569.90537"
     inkscape:window-width="1440"
     inkscape:window-height="872"
     inkscape:window-x="0"
     inkscape:window-y="28"
     inkscape:window-maximized="0"
     inkscape:current-layer="layer1" />
  <defs
     id="defs23060">
    <rect
       x="13.65726"
       y="48.653992"
       width="109.98379"
       height="20.12311"
       id="rect1075" />
    <rect
       x="13.65726"
       y="48.653992"
       width="130.50613"
       height="70.614571"
       id="rect22898" />
    <rect
       x="13.65726"
       y="48.653992"
       width="130.50613"
       height="70.614571"
       id="rect22900" />
    <rect
       x="13.65726"
       y="48.653992"
       width="130.50613"
       height="70.614571"
       id="rect22902" />
    <rect
       x="13.65726"
       y="48.653992"
       width="130.50613"
       height="70.614571"
       id="rect22904" />
    <rect
       x="13.65726"
       y="48.653992"
       width="130.50613"
       height="70.614571"
       id="rect22906" />
    <rect
       x="13.65726"
       y="48.653992"
       width="130.50613"
       height="70.614571"
       id="rect22908" />
    <rect
       x="13.65726"
       y="48.653992"
       width="130.50613"
       height="70.614571"
       id="rect22910" />
    <rect
       x="13.65726"
       y="48.653992"
       width="130.50613"
       height="70.614571"
       id="rect22912" />
  </defs>
  <g
     inkscape:label="Layer 1"
     inkscape:groupmode="layer"
     id="layer1">
    <g
       id="g23892"
       transform="matrix(1.8838946,0,0,1.8838946,-70.688988,-68.009862)">
      <g
         transform="matrix(1.1987908,0,0,1.1987908,-78.402372,34.848489)"
         id="g1110">
        <path
           style="opacity:1;fill:#ffaaaa;fill-opacity:1;stroke:#000000;stroke-width:0.1;stroke-linecap:round;stroke-miterlimit:4;stroke-dasharray:none;stroke-opacity:1;paint-order:fill markers stroke"
           d="m 109.09335,53.386674 c -1.76369,-0.474143 -3.16393,-1.829114 -3.77602,-3.653938 -0.16315,-0.48641 -0.1722,-1.232085 -0.1961,-16.153336 -0.028,-17.449675 -0.0668,-16.344238 0.62384,-17.745246 0.28529,-0.578692 0.52056,-0.893242 1.02184,-1.366123 1.29083,-1.217702 2.85725,-1.519692 4.45059,-1.411127 1.23932,0.03117 3.80063,0.965697 4.40585,4.270789 l 0.027,15.391237 c 0.019,10.813764 -0.003,15.623305 -0.075,16.17154 -0.28826,2.203529 -1.82006,3.943583 -3.95968,4.498014 -0.69274,0.179507 -1.85096,0.178676 -2.52232,-0.0019 z"
           id="path1056"
           inkscape:connector-curvature="0"
           sodipodi:nodetypes="ccccsccccscc" />
        <path
           style="opacity:1;fill:#ffe680;stroke:#000000;stroke-width:0.1;stroke-linecap:butt;stroke-linejoin:miter;stroke-miterlimit:4;stroke-dasharray:none;stroke-opacity:1"
           d="m 106.29013,24.845261 v 23.289572 c 0.0968,1.065659 0.60582,1.812712 2.059,1.830221 3.04376,0.04646 5.43911,-0.159674 6.13505,-1.750136 0.18561,-7.497728 0.0419,-15.713229 0.0419,-23.506924 -0.34731,-1.437933 -2.65723,-1.833778 -4.1641,-1.759295 -1.78237,0.0652 -4.04764,0.64993 -4.0719,1.896562 z"
           id="path1058"
           inkscape:connector-curvature="0"
           sodipodi:nodetypes="cccccccc" />
        <path
           style="display:inline;opacity:1;fill:#ff9955;stroke:#000000;stroke-width:0.0901293;stroke-linecap:butt;stroke-linejoin:miter;stroke-miterlimit:4;stroke-dasharray:none;stroke-opacity:1"
           d="M 106.82594,25.803235 V 47.5768 c 0.0841,0.996292 0.5264,1.694718 1.78905,1.711084 2.64466,0.04348 4.72595,-0.149279 5.33065,-1.636213 0.16127,-7.009674 0.0364,-14.690395 0.0364,-21.976767 -0.30177,-1.344333 -2.3088,-1.714412 -3.6181,-1.64478 -1.54872,0.06092 -3.51698,0.607628 -3.53805,1.773111 z"
           id="path1058-5-9"
           inkscape:connector-curvature="0"
           sodipodi:nodetypes="cccccccc" />
        <path
           style="display:inline;opacity:1;fill:#55ddff;fill-opacity:1;stroke:#000000;stroke-width:0.0862097;stroke-linecap:butt;stroke-linejoin:miter;stroke-miterlimit:4;stroke-dasharray:none;stroke-opacity:1"
           d="M 106.78001,27.587831 V 47.50881 c 0.0841,0.911523 0.5264,1.550525 1.78905,1.565498 2.64466,0.03978 4.72595,-0.136578 5.33065,-1.496997 0.16127,-6.413261 0.0364,-13.440475 0.0364,-20.106892 -0.30177,-1.229951 -2.3088,-1.568542 -3.6181,-1.504835 -1.54872,0.05574 -3.51698,0.555929 -3.53805,1.622247 z"
           id="path1058-5-5"
           inkscape:connector-curvature="0"
           sodipodi:nodetypes="cccccccc" />
        <path
           sodipodi:nodetypes="cccccccc"
           inkscape:connector-curvature="0"
           id="path1058-5"
           d="m 106.80835,29.271687 v 18.612085 c 0.0841,0.851633 0.5264,1.448649 1.78905,1.462638 2.64466,0.03717 4.72595,-0.127604 5.33065,-1.398637 0.16127,-5.991883 0.0364,-12.557378 0.0364,-18.785783 -0.30177,-1.149138 -2.3088,-1.465482 -3.6181,-1.405961 -1.54872,0.05208 -3.51698,0.519402 -3.53805,1.515658 z"
           style="display:inline;opacity:1;fill:#e6e6e6;stroke:#000000;stroke-width:0.0833295;stroke-linecap:butt;stroke-linejoin:miter;stroke-miterlimit:4;stroke-dasharray:none;stroke-opacity:1" />
      </g>
      <path
         sodipodi:nodetypes="ccc"
         inkscape:connector-curvature="0"
         id="path1112"
         d="M 92.181974,51.863868 H 68.482021 L 53.59243,61.177682"
         style="fill:none;stroke:#000000;stroke-width:0.18;stroke-linecap:round;stroke-linejoin:miter;stroke-miterlimit:4;stroke-dasharray:1.08, 1.08;stroke-dashoffset:0;stroke-opacity:1" />
      <path
         sodipodi:nodetypes="ccc"
         inkscape:connector-curvature="0"
         id="path1114"
         d="m 92.181974,60.130579 h -25.8396 L 53.59243,63.05511"
         style="fill:none;stroke:#000000;stroke-width:0.179819;stroke-linecap:round;stroke-linejoin:miter;stroke-miterlimit:4;stroke-dasharray:1.07891, 1.07891;stroke-dashoffset:0;stroke-opacity:1" />
      <path
         sodipodi:nodetypes="ccc"
         inkscape:connector-curvature="0"
         id="path1116"
         d="M 92.181974,79.455593 H 66.437402 L 53.686008,64.88923"
         style="fill:none;stroke:#000000;stroke-width:0.179819;stroke-linecap:round;stroke-linejoin:miter;stroke-miterlimit:4;stroke-dasharray:1.07891, 1.07891;stroke-dashoffset:0;stroke-opacity:1" />
      <path
         sodipodi:nodetypes="ccc"
         inkscape:connector-curvature="0"
         id="path1118"
         d="M 92.181974,94.31371 H 66.740624 L 54.011552,67.317713"
         style="fill:none;stroke:#000000;stroke-width:0.179819;stroke-linecap:round;stroke-linejoin:miter;stroke-miterlimit:4;stroke-dasharray:1.07891, 1.07891;stroke-dashoffset:0;stroke-opacity:1" />
      <rect
         y="75.896454"
         x="94.929451"
         height="8.2287407"
         width="44.355259"
         id="rect1120"
         style="opacity:0.3;fill:#ff9955;fill-opacity:1;stroke:none;stroke-width:0.186166;stroke-linecap:round;stroke-miterlimit:4;stroke-dasharray:none;stroke-opacity:1;paint-order:fill markers stroke" />
      <rect
         style="display:inline;opacity:0.3;fill:#55ddff;fill-opacity:1;stroke:none;stroke-width:0.164492;stroke-linecap:round;stroke-miterlimit:4;stroke-dasharray:none;stroke-opacity:1;paint-order:fill markers stroke"
         id="rect1120-2"
         width="44.355259"
         height="6.4242506"
         x="94.929253"
         y="91.394417" />
      <rect
         style="display:inline;opacity:0.3;fill:#ffe680;fill-opacity:1;stroke:none;stroke-width:0.230808;stroke-linecap:round;stroke-miterlimit:4;stroke-dasharray:none;stroke-opacity:1;paint-order:fill markers stroke"
         id="rect1120-4"
         width="44.355259"
         height="12.648224"
         x="94.929253"
         y="52.62307" />
      <rect
         y="51.180653"
         x="94.929253"
         height="1.4424162"
         width="44.35527"
         id="rect1120-4-9"
         style="display:inline;opacity:0.3;fill:#ffaaaa;fill-opacity:1;stroke:none;stroke-width:0.0779439;stroke-linecap:round;stroke-miterlimit:4;stroke-dasharray:none;stroke-opacity:1;paint-order:fill markers stroke" />
      <text
         transform="matrix(1.1987908,0,0,1.1987908,51.375563,-10.346584)"
         style="font-style:normal;font-variant:normal;font-weight:normal;font-stretch:normal;font-size:2.46944px;line-height:1.25;font-family:'Hiragino Kaku Gothic ProN';-inkscape-font-specification:'Hiragino Kaku Gothic ProN';white-space:pre;shape-inside:url(#rect1075);display:inline;fill:#000000;fill-opacity:1;stroke:none"
         id="text1073"
         xml:space="preserve"><tspan
           x="13.658203"
           y="51.136084"
           id="tspan24035"><tspan
             style="font-weight:600;-inkscape-font-specification:'Hiragino Kaku Gothic ProN Semi-Bold';fill:#2b1100"
             id="tspan24033">External leaflet</tspan></tspan></text>
      <text
         transform="matrix(0.31718006,0,0,0.31718006,67.030593,44.730112)"
         y="7.4386535"
         x="-0.66266549"
         xml:space="preserve"
         id="text1073-4"
         style="font-style:normal;font-variant:normal;font-weight:normal;font-stretch:normal;font-size:9.33332px;line-height:1.25;font-family:'Hiragino Kaku Gothic ProN';-inkscape-font-specification:'Hiragino Kaku Gothic ProN';white-space:pre;shape-inside:url(#rect1075);display:inline;fill:#000000;fill-opacity:1;stroke:none;stroke-width:3.77953"><tspan
           x="13.658203"
           y="58.034283"
           id="tspan24039"><tspan
             style="font-weight:600;-inkscape-font-specification:'Hiragino Kaku Gothic ProN Semi-Bold';fill:#2b1100"
             id="tspan24037">Membrane</tspan></tspan></text>
      <text
         transform="matrix(0.31718006,0,0,0.31718006,64.757666,64.52195)"
         y="7.4386535"
         x="-0.66266549"
         xml:space="preserve"
         id="text1073-8"
         style="font-style:normal;font-variant:normal;font-weight:normal;font-stretch:normal;font-size:9.33332px;line-height:1.25;font-family:'Hiragino Kaku Gothic ProN';-inkscape-font-specification:'Hiragino Kaku Gothic ProN';white-space:pre;shape-inside:url(#rect1075);display:inline;fill:#2b1100;fill-opacity:1;stroke:none;stroke-width:3.77953"><tspan
           x="13.658203"
           y="58.034283"
           id="tspan24043"><tspan
             style="font-weight:600;-inkscape-font-specification:'Hiragino Kaku Gothic ProN Semi-Bold'"
             id="tspan24041">Peptidoglycan</tspan></tspan></text>
      <text
         transform="matrix(0.31718006,0,0,0.31718006,57.486046,79.493825)"
         y="7.4386535"
         x="-0.66266549"
         xml:space="preserve"
         id="text1073-3"
         style="font-style:normal;font-variant:normal;font-weight:normal;font-stretch:normal;font-size:9.33332px;line-height:1.25;font-family:'Hiragino Kaku Gothic ProN';-inkscape-font-specification:'Hiragino Kaku Gothic ProN';white-space:pre;shape-inside:url(#rect1075);display:inline;fill:#2b1100;fill-opacity:1;stroke:none;stroke-width:3.77953"><tspan
           x="13.658203"
           y="58.034283"
           id="tspan24047"><tspan
             style="font-weight:600;-inkscape-font-specification:'Hiragino Kaku Gothic ProN Semi-Bold'"
             id="tspan24045">Plasmic membrane</tspan></tspan></text>
    </g>
    <text
       xml:space="preserve"
       style="font-weight:bold;font-size:9.87777px;font-family:sans-serif;-inkscape-font-specification:'sans-serif Bold';fill:#1ca8ab;stroke:#000000;stroke-width:0.1"
       x="146.92366"
       y="90.716568"
       id="text23860"><tspan
         sodipodi:role="line"
         x="146.92366"
         y="90.716568"
         style="stroke-width:0.1"
         id="tspan23862" /></text>
  </g>
</svg>
