<?xml version="1.0" encoding="UTF-8" standalone="no"?>
<!-- Created with Inkscape (http://www.inkscape.org/) -->

<svg
   width="3.0000002mm"
   height="12.500017mm"
   viewBox="0 0 3.0000003 12.500017"
   version="1.1"
   id="svg19103"
   inkscape:version="1.2 (dc2aeda, 2022-05-15)"
   sodipodi:docname="phospholipid.svg"
   xmlns:inkscape="http://www.inkscape.org/namespaces/inkscape"
   xmlns:sodipodi="http://sodipodi.sourceforge.net/DTD/sodipodi-0.dtd"
   xmlns="http://www.w3.org/2000/svg"
   xmlns:svg="http://www.w3.org/2000/svg">
  <sodipodi:namedview
     id="namedview19105"
     pagecolor="#ffffff"
     bordercolor="#000000"
     borderopacity="0.25"
     inkscape:showpageshadow="2"
     inkscape:pageopacity="0.0"
     inkscape:pagecheckerboard="0"
     inkscape:deskcolor="#d1d1d1"
     inkscape:document-units="mm"
     showgrid="true"
     inkscape:lockguides="false"
     inkscape:zoom="4.1032519"
     inkscape:cx="54.956412"
     inkscape:cy="75.062416"
     inkscape:window-width="1440"
     inkscape:window-height="872"
     inkscape:window-x="1920"
     inkscape:window-y="28"
     inkscape:window-maximized="0"
     inkscape:current-layer="layer1">
    <inkscape:grid
       type="xygrid"
       id="grid21041"
       originx="-1.1571284e-08"
       originy="-8.1956383e-08" />
  </sodipodi:namedview>
  <defs
     id="defs19100">
    <inkscape:path-effect
       effect="spiro"
       id="path-effect21579"
       is_visible="true"
       lpeversion="1" />
    <inkscape:path-effect
       effect="spiro"
       id="path-effect21146"
       is_visible="true"
       lpeversion="1" />
    <inkscape:path-effect
       effect="spiro"
       id="path-effect21579-7"
       is_visible="true"
       lpeversion="1" />
  </defs>
  <g
     inkscape:label="Layer 1"
     inkscape:groupmode="layer"
     id="layer1">
    <g
       id="g22416">
      <path
         style="fill:#ffffff;fill-opacity:1;stroke:#000000;stroke-width:0.0998044;stroke-dasharray:none"
         d="m 0.59948746,12.449869 c -0.15650683,0.0049 -0.31376477,-0.06339 -0.41711943,-0.18102 -0.10335467,-0.117626 -0.15080719,-0.282355 -0.12586562,-0.436938 0.02262885,-0.140249 0.10113151,-0.266989 0.20082829,-0.368194 0.0996968,-0.101204 0.22012818,-0.179348 0.34215676,-0.252086 0.12317997,-0.07343 0.25044132,-0.143218 0.35494891,-0.241416 0.0522538,-0.0491 0.0984567,-0.105209 0.13216903,-0.168491 0.033712,-0.06328 0.054675,-0.133957 0.055871,-0.205649 0.00121,-0.07261 -0.017897,-0.144884 -0.05055,-0.209753 C 1.059274,10.321452 1.0133588,10.263779 0.96076049,10.213702 0.85556378,10.113548 0.72543891,10.044334 0.5974047,9.975745 0.47029027,9.9076488 0.34178555,9.8376974 0.23794761,9.7376332 0.18602864,9.6876011 0.1407097,9.6301888 0.10822885,9.5658166 0.07574799,9.5014443 0.05635823,9.4299289 0.05650241,9.3578264 0.05664674,9.2856469 0.07636312,9.2141387 0.10913382,9.1498272 0.14190452,9.0855157 0.18747641,9.0282133 0.23958656,8.9782691 0.34380687,8.8783806 0.47247159,8.8084923 0.59948746,8.739888 0.72688558,8.6710773 0.85603673,8.6011045 0.96047597,8.5008167 1.0126956,8.4506728 1.0583011,8.3930931 1.0909251,8.3284636 1.1235491,8.2638341 1.1429286,8.1919633 1.1424765,8.1195679 1.1420279,8.0477213 1.1220591,7.9766313 1.0891273,7.9127749 1.0561956,7.8489185 1.0105534,7.7921054 0.95845973,7.7426243 0.85427236,7.643662 0.72596835,7.5745718 0.59948746,7.5063726 0.47175416,7.4374981 0.34245292,7.3670713 0.2380479,7.266279 0.18584539,7.2158829 0.14030544,7.1580429 0.10777094,7.0931863 0.07523644,7.0283297 0.0559683,6.9562686 0.05650241,6.8837111 0.0570322,6.8117402 0.0770309,6.7405427 0.10996477,6.676547 0.14289864,6.6125513 0.18851803,6.5555686 0.24059007,6.5058837 0.34473416,6.4065139 0.47301423,6.3368819 0.59948746,6.2681442 0.7263849,6.199176 0.854812,6.1286912 0.95864568,6.0283012 1.0105625,5.9781062 1.0559042,5.9205804 1.0884372,5.8561095 1.1209701,5.7916386 1.140443,5.7200383 1.1403965,5.6478241 1.1403501,5.5757461 1.1208583,5.5043007 1.0883367,5.4399767 1.0558151,5.3756526 1.0105129,5.3182683 0.95863092,5.2682334 0.85486685,5.1681635 0.72650244,5.0980831 0.59948746,5.0299057 0.47188418,4.9614125 0.34219257,4.8923683 0.23715406,4.7926646 0.18463481,4.7428128 0.13872145,4.6854327 0.10592018,4.6208761 0.07311891,4.5563195 0.05370463,4.4843855 0.0544206,4.4119772 0.05513305,4.3399256 0.07575141,4.2687605 0.10926894,4.2049755 0.14278647,4.1411906 0.18894008,4.084565 0.24124728,4.035008 0.34586169,3.935894 0.47360499,3.8654331 0.5974047,3.7916673 0.71902534,3.7191999 0.83923581,3.6417162 0.93916844,3.5414337 1.0391011,3.4411512 1.1183557,3.3156241 1.1424765,3.1761203 1.1695246,3.0196865 1.1224386,2.8520574 1.017891,2.732588 0.91334343,2.6131186 0.75344047,2.5442156 0.59480122,2.5502766"
         id="path21577"
         inkscape:path-effect="#path-effect21579"
         inkscape:original-d="M 0.59948746,12.449869 C 0.41821889,12.243404 0.2372264,12.038228 0.05650241,11.831911 -0.12422443,11.625646 0.41821889,11.418698 0.59948746,11.211631 0.78075699,11.004544 0.96120883,10.80154 1.1424765,10.596075 1.3237421,10.39055 0.77882325,10.182842 0.5974047,9.975745 0.41598804,9.768678 0.23653087,9.5641027 0.05650241,9.3578264 -0.12352891,9.15154 0.41821889,8.9461742 0.59948746,8.739888 0.78075699,8.5335917 0.96120883,8.3266549 1.1424765,8.1195679 1.3237421,7.9125011 0.78021336,7.7110879 0.59948746,7.5063726 0.41876252,7.3016573 0.2372264,7.0915684 0.05650241,6.8837111 -0.12422443,6.6758237 0.41821889,6.47362 0.59948746,6.2681442 0.78075699,6.0626483 0.95981969,5.854911 1.1403965,5.6478241 1.3209676,5.4407472 0.77951879,5.2361819 0.59948746,5.0299057 0.41945901,4.8236194 0.23584012,4.6182637 0.0544206,4.4119772 -0.12699607,4.2056809 0.4161409,3.9987541 0.5974047,3.7916673 0.77867422,3.5846003 0.96051712,3.3816062 1.1424765,3.1761203 1.3244357,2.9706045 0.77708441,2.7591748 0.59480122,2.5502766" />
      <path
         style="fill:#ffffff;fill-opacity:1;stroke:#000000;stroke-width:0.0998029;stroke-dasharray:none"
         d="m 1.7994851,12.449716 c -0.1565057,0.0049 -0.3137636,-0.06339 -0.4171182,-0.181014 -0.1033546,-0.117625 -0.150807,-0.282353 -0.125865,-0.436935 0.022629,-0.140247 0.1011318,-0.266985 0.2008282,-0.368188 0.099696,-0.101203 0.2201272,-0.179344 0.342155,-0.252081 0.1231795,-0.07342 0.2504402,-0.143215 0.3549475,-0.241411 0.052254,-0.0491 0.098456,-0.105207 0.1321686,-0.168489 0.033712,-0.06328 0.054675,-0.133956 0.055871,-0.205647 0.00121,-0.07261 -0.017897,-0.144882 -0.050549,-0.209751 -0.032653,-0.06487 -0.078568,-0.122542 -0.131166,-0.172618 C 2.0555604,10.113429 1.9254361,10.044217 1.7974025,9.9756301 1.6702887,9.9075356 1.5417845,9.8375861 1.4379469,9.7375235 1.386028,9.6874922 1.3407092,9.6300808 1.3082283,9.5657093 1.2757475,9.5013378 1.2563577,9.429823 1.2565019,9.3577212 1.2566462,9.2855424 1.2763626,9.2140349 1.3091332,9.1497241 1.3419038,9.0854132 1.3874756,9.0281116 1.4395856,8.9781682 1.5438056,8.8782814 1.6724698,8.8083948 1.7994851,8.7397923 1.9268826,8.6709834 2.0560332,8.6010124 2.1604721,8.5007262 2.2126916,8.4505831 2.258297,8.3930042 2.2909209,8.3283754 2.3235448,8.2637466 2.3429243,8.1918765 2.3424722,8.1194818 2.3420236,8.0476359 2.3220548,7.9765465 2.2891231,7.9126909 2.2561914,7.8488353 2.2105494,7.7920229 2.1584559,7.7425426 2.0542688,7.6435819 1.9259654,7.5744934 1.7994851,7.506296 1.6717524,7.4374233 1.5424517,7.3669982 1.438047,7.2662075 1.3858446,7.2158122 1.3403048,7.157973 1.3077703,7.0931171 1.2752359,7.0282612 1.2559678,6.9562007 1.2565019,6.8836439 1.2570317,6.8116737 1.2770304,6.7404768 1.3099642,6.6764819 1.342898,6.6124869 1.3885173,6.555505 1.4405892,6.5058209 1.5447329,6.4064527 1.6730124,6.3368224 1.7994851,6.2680865 1.926382,6.1991201 2.0548085,6.128637 2.1586419,6.0282487 2.2105586,5.9780546 2.2559001,5.9205296 2.2884331,5.8560594 2.320966,5.7915892 2.3404389,5.7199896 2.3403924,5.6477761 2.340346,5.5756987 2.3208543,5.504254 2.2883327,5.4399307 2.2558111,5.3756073 2.2105091,5.3182238 2.1586272,5.2681897 2.0548634,5.1681214 1.9264995,5.0980428 1.7994851,5.0298671 1.6718824,4.9613757 1.5421913,4.8923333 1.4371532,4.7926312 1.3846341,4.7427801 1.3387208,4.6854008 1.3059196,4.6208449 1.2731184,4.556289 1.2537041,4.4843558 1.2544201,4.4119481 1.2551326,4.3398972 1.2757509,4.2687327 1.3092684,4.2049485 1.3427859,4.1411643 1.3889394,4.0845395 1.4412464,4.0349833 1.5458606,3.9358708 1.6736033,3.8654117 1.7974025,3.7916476 1.9190225,3.7191819 2.0392324,3.6416999 2.1391647,3.541419 2.2390969,3.4411381 2.3183514,3.3156125 2.3424722,3.1761102 2.3695204,3.0196776 2.3224344,2.8520498 2.217887,2.7325819 2.1133395,2.613114 1.9534369,2.544213 1.794799,2.5502761"
         id="path21577-0"
         inkscape:original-d="M 1.7994851,12.449716 C 1.6182172,12.243253 1.4372253,12.03808 1.2565019,11.831767 1.0757757,11.625506 1.6182172,11.41856 1.7994851,11.211498 1.980754,11.004413 2.1612052,10.801413 2.3424722,10.595951 2.5237373,10.390429 1.9788203,10.182724 1.7974025,9.9756301 1.6159863,9.7685665 1.4365297,9.5639943 1.2565019,9.3577212 1.0764713,9.1514381 1.6182172,8.9460754 1.7994851,8.7397923 1.980754,8.5334991 2.1612052,8.3265654 2.3424722,8.1194818 2.5237373,7.9124181 1.9802104,7.7110081 1.7994851,7.506296 1.6187608,7.3015836 1.4372253,7.0914981 1.2565019,6.8836439 1.0757757,6.6757597 1.6182172,6.4735592 1.7994851,6.2680865 1.980754,6.0625937 2.1598161,5.8548597 2.3403924,5.6477761 2.5209628,5.4407023 1.9795158,5.2361403 1.7994851,5.0298671 1.6194572,4.8235839 1.435839,4.6182313 1.2544201,4.4119481 1.073004,4.2056549 1.6161392,3.9987314 1.7974025,3.7916476 1.9786713,3.5845841 2.1605135,3.3815929 2.3424722,3.1761102 2.524431,2.9705976 1.9770815,2.7591712 1.794799,2.5502761"
         inkscape:path-effect="#path-effect21579-7" />
      <ellipse
         style="fill:#ffffff;fill-opacity:1;stroke:#000000;stroke-width:0.100074;stroke-dasharray:none"
         id="path21633"
         cx="1.5000001"
         cy="1.5000004"
         rx="1.4499631"
         ry="1.4499633" />
    </g>
  </g>
</svg>
