<?xml version="1.0" encoding="UTF-8" standalone="no"?>
<!-- Created with Inkscape (http://www.inkscape.org/) -->

<svg
   width="95.222153mm"
   height="36.968956mm"
   viewBox="0 0 95.222146 36.968954"
   version="1.1"
   id="svg5"
   inkscape:version="1.2 (dc2aeda, 2022-05-15)"
   sodipodi:docname="spirullum.svg"
   xmlns:inkscape="http://www.inkscape.org/namespaces/inkscape"
   xmlns:sodipodi="http://sodipodi.sourceforge.net/DTD/sodipodi-0.dtd"
   xmlns="http://www.w3.org/2000/svg"
   xmlns:svg="http://www.w3.org/2000/svg">
  <sodipodi:namedview
     id="namedview7"
     pagecolor="#ffffff"
     bordercolor="#000000"
     borderopacity="0.25"
     inkscape:showpageshadow="2"
     inkscape:pageopacity="0.0"
     inkscape:pagecheckerboard="0"
     inkscape:deskcolor="#d1d1d1"
     inkscape:document-units="mm"
     showgrid="false"
     inkscape:lockguides="true"
     inkscape:zoom="1.3874131"
     inkscape:cx="122.89058"
     inkscape:cy="114.60177"
     inkscape:window-width="1440"
     inkscape:window-height="786"
     inkscape:window-x="0"
     inkscape:window-y="25"
     inkscape:window-maximized="0"
     inkscape:current-layer="layer1" />
  <defs
     id="defs2">
    <inkscape:path-effect
       effect="spiro"
       id="path-effect1367"
       is_visible="true"
       lpeversion="1" />
    <inkscape:path-effect
       effect="spiro"
       id="path-effect409"
       is_visible="true"
       lpeversion="1" />
    <inkscape:path-effect
       effect="spiro"
       id="path-effect8754"
       is_visible="true"
       lpeversion="1" />
  </defs>
  <g
     inkscape:label="Layer 1"
     inkscape:groupmode="layer"
     id="layer1"
     transform="translate(-11.093718,-59.885245)">
    <g
       id="g1376"
       style="stroke-width:0.1;stroke-dasharray:none">
      <path
         style="fill:#bdf2f5;fill-opacity:1;stroke:#000000;stroke-width:0.1;stroke-opacity:1;stroke-dasharray:none"
         d="m 18.306933,86.476172 c 5.980471,5.023548 13.430758,8.328985 21.197501,9.153464 6.253049,0.663793 12.634804,-0.26929 18.547816,-2.408806 4.383645,-1.586143 8.612345,-3.847121 13.248436,-4.335852 1.699331,-0.179141 3.454385,-0.107009 5.058494,0.481762 1.333136,0.489313 2.514899,1.316198 3.627245,2.199015 1.112346,0.882816 2.175447,1.832758 3.358298,2.618597 2.133992,1.417739 4.636605,2.270417 7.190643,2.4724 2.554037,0.201983 5.154193,-0.24494 7.503079,-1.267995 3.375255,-1.470089 6.263255,-4.229139 7.467305,-7.708183 0.79104,-2.285675 0.83801,-4.79583 0.31678,-7.15769 -0.52123,-2.36186 -1.59422,-4.580779 -2.96647,-6.57251 C 98.458488,67.567586 91.13454,63.664795 83.585602,61.90634 c -8.761,-2.040794 -18.154909,-1.439187 -26.496878,1.927045 -3.447972,1.391359 -6.737561,3.247756 -10.357868,4.094972 -1.899657,0.444553 -3.923298,0.595614 -5.781138,0 -1.408547,-0.451573 -2.65169,-1.308477 -3.798812,-2.242304 -1.147122,-0.933827 -2.223334,-1.957326 -3.427607,-2.816191 -3.36102,-2.397015 -7.726626,-3.390814 -11.763504,-2.527245 -4.036879,0.863569 -7.660766,3.616888 -9.433999,7.344861 -1.009652,2.122652 -1.424237,4.51732 -1.239223,6.86057 0.185015,2.343249 0.963999,4.63111 2.202746,6.628748 1.263477,2.037519 2.981853,3.757352 4.817614,5.299376 z"
         id="path1365"
         inkscape:path-effect="#path-effect1367"
         inkscape:original-d="m 18.306933,86.476172 c 1.605607,1.766192 14.131933,6.102575 21.197501,9.153464 7.065571,3.050892 12.365474,-1.605605 18.547816,-2.408806 6.182338,-0.803201 8.832556,-2.890303 13.248436,-4.335852 4.415882,-1.445548 3.372596,0.321437 5.058494,0.481762 1.685901,0.160321 4.657294,3.212007 6.985543,4.817612 2.328248,1.605608 9.796078,0.803201 14.693722,1.204405 4.897645,0.401203 4.978465,-5.138523 7.467305,-7.708183 2.48883,-2.569657 -1.7662,-9.153202 -2.64969,-13.7302 -0.8835,-4.576998 -12.846708,-8.029091 -19.270458,-12.044034 -6.42375,-4.014944 -17.664319,1.284962 -26.496878,1.927045 -8.832556,0.642085 -6.904982,2.730246 -10.357868,4.094972 -3.452889,1.364726 -3.853828,2.64e-4 -5.781138,0 -1.92731,-2.65e-4 -4.817348,-3.372064 -7.226419,-5.058495 -2.409073,-1.68643 -14.131404,3.212007 -21.197503,4.817616 -7.0660981,1.605605 0.642613,8.993142 0.963523,13.489318 0.32091,4.496175 3.212007,3.533182 4.817614,5.299376 z" />
      <path
         d="m 59.89549,67.85748 c -3.798208,1.158696 -7.519527,2.573783 -11.369101,3.555671 -3.726782,0.904006 -7.87399,1.207089 -11.401275,-0.576271 -2.832631,-1.348629 -5.112522,-3.627671 -7.989612,-4.887128 -1.99497,-0.755656 -4.212952,-0.725228 -6.29327,-0.3941 -2.004947,0.399817 -3.698601,1.723861 -5.098945,3.153936 -1.135378,1.099431 -1.87817,2.607081 -1.86402,4.206563 -0.01517,1.839423 0.108488,3.76557 0.908184,5.451521 1.38806,2.870886 4.121531,4.700982 6.678724,6.436393 3.881554,2.589161 8.116394,4.784045 12.730041,5.689075 2.203112,0.512963 4.462746,0.68218 6.720293,0.65978 2.27477,0.033 4.569075,-0.01631 6.786867,-0.579332 7.461799,-1.663367 14.602138,-4.505631 22.01749,-6.321486 2.716324,-0.731374 5.618604,-0.156328 8.077506,1.124027 2.859342,1.493419 5.17436,3.826792 7.985062,5.395691 1.08079,0.606361 2.304632,0.928644 3.546568,0.855708 1.433041,0.008 2.916458,0.02579 4.242796,-0.602997 1.979251,-0.904145 3.518861,-2.588304 4.656982,-4.40931 0.87632,-1.404246 1.32554,-3.055329 1.22388,-4.711625 -0.0108,-1.221022 -0.73479,-2.291176 -1.26102,-3.348868 C 98.633289,75.82505 96.277107,73.637996 93.766891,71.789513 89.947094,69.05025 85.70395,66.762009 81.098458,65.693683 78.560917,65.159102 75.94569,65.329931 73.37006,65.254697 68.644089,65.491862 63.798803,66.658008 59.89549,67.85748 Z"
         id="cell_body-8-4"
         inkscape:connector-curvature="0"
         style="display:inline;fill:#1ca8ab;fill-opacity:1;stroke:#000000;stroke-width:0.1;stroke-linecap:round;stroke-miterlimit:4;stroke-dasharray:none;stroke-opacity:1;paint-order:fill markers stroke"
         sodipodi:nodetypes="cccccccccccccccccccccccc" />
      <circle
         id="path5665"
         style="fill:#ffffff;stroke:#ffffff;stroke-width:0.1;stroke-dasharray:none"
         cx="52.551258"
         cy="96.061462"
         r="0.062074345" />
    </g>
  </g>
</svg>
