<?xml version="1.0" encoding="UTF-8" standalone="no"?>
<!-- Created with Inkscape (http://www.inkscape.org/) -->

<svg
   width="210mm"
   height="297mm"
   viewBox="0 0 210 297"
   version="1.1"
   id="svg17851"
   sodipodi:docname="flagellum.svg"
   xmlns:inkscape="http://www.inkscape.org/namespaces/inkscape"
   xmlns:sodipodi="http://sodipodi.sourceforge.net/DTD/sodipodi-0.dtd"
   xmlns="http://www.w3.org/2000/svg"
   xmlns:svg="http://www.w3.org/2000/svg">
  <sodipodi:namedview
     id="namedview17853"
     pagecolor="#ffffff"
     bordercolor="#000000"
     borderopacity="0.25"
     inkscape:showpageshadow="2"
     inkscape:pageopacity="0.0"
     inkscape:pagecheckerboard="0"
     inkscape:deskcolor="#d1d1d1"
     inkscape:document-units="mm"
     showgrid="true"
     inkscape:lockguides="true"
     inkscape:zoom="1.5190478"
     inkscape:cx="202.1003"
     inkscape:cy="71.097172"
     inkscape:window-width="1440"
     inkscape:window-height="872"
     inkscape:window-x="0"
     inkscape:window-y="28"
     inkscape:window-maximized="0"
     inkscape:current-layer="layer1">
    <inkscape:grid
       type="xygrid"
       id="grid18473" />
  </sodipodi:namedview>
  <defs
     id="defs17848">
    <inkscape:path-effect
       effect="spiro"
       id="path-effect21481"
       is_visible="true"
       lpeversion="1" />
    <inkscape:path-effect
       effect="spiro"
       id="path-effect21481-6"
       is_visible="true"
       lpeversion="1" />
  </defs>
  <g
     inkscape:label="Layer 1"
     inkscape:groupmode="layer"
     id="layer1">
    <path
       inkscape:connector-curvature="0"
       id="path1572-56-5-7-6-1-1"
       d="m 41.274806,21.653905 c -1.02782,-0.0079 -1.82101,0.449859 -2.70406,0.960758 -0.38412,0.217882 -0.90808,0.457004 -1.27474,0.7024 0.1381,0.718588 0.0401,1.051992 -0.11689,1.682483 -0.0429,0.166205 -0.17005,0.308097 -0.18889,0.477091 0.10364,0.126245 0.21972,-0.06663 0.31715,-0.11683 0.51787,-0.33559 1.07889,-0.600313 1.59937,-0.932955 0.59611,-0.344754 0.80111,-0.616183 1.43019,-0.900499 0.29801,-0.190591 1.00278,-0.303368 1.38826,-0.183039 0.83393,0.206482 1.48581,0.811826 2.13198,1.347519 0.65022,0.547413 1.2609,1.170242 2.03013,1.551947 0.56048,0.256324 1.20761,0.205846 1.79418,0.07811 0.75327,-0.241345 1.40145,-0.716455 2.06922,-1.126117 0.76037,-0.470308 1.48896,-1.034197 2.34135,-1.323003 0.47375,-0.163862 0.99316,-0.05906 1.42684,0.169486 0.35358,0.145551 0.70859,0.357049 1.10059,0.357457 0.13887,3.04e-4 0.16855,-0.176054 0.0525,-0.23771 -0.58031,-0.501442 -1.32371,-0.804919 -2.07959,-0.910512 -0.96669,-0.07906 -1.88523,0.334139 -2.73066,0.753153 -0.77394,0.377155 -1.47753,0.911094 -2.30976,1.149907 -0.44644,0.120001 -0.93963,0.0166 -1.29087,-0.287235 -1.04985,-0.837311 -1.74664,-1.851461 -2.85375,-2.632884 -0.71151,-0.381869 -1.45152,-0.603922 -2.13261,-0.57952 z"
       style="fill:#1fc2c6;fill-opacity:1;stroke:#000000;stroke-width:0.1;stroke-linecap:round;stroke-miterlimit:4;stroke-dasharray:none;stroke-opacity:1;paint-order:fill markers stroke"
       sodipodi:nodetypes="ccccccccccccccccccccccc" />
    <path
       inkscape:connector-curvature="0"
       id="path1576-32-1-0-5-9-7"
       d="m 14.150107,5.7977196 c -0.940577,-0.02158 -1.904417,0.21652 -2.664737,0.786698 -0.89719,0.636676 -1.4907002,1.581291 -2.2176502,2.386488 -0.28149,0.338177 -0.68516,0.588774 -1.13409,0.600005 -0.8878,0.04813 -1.70993,-0.406863 -2.50244,-0.771275 -0.7547,-0.346768 -1.49085,-0.768814 -2.30809,-0.951346 -0.18895,-0.02774 -0.38281,-0.0602 -0.57225,-0.06111 -0.13188,0.09232 0.0536,0.195086 0.13133,0.240768 1.07895,0.65903 2.09411,1.420083 3.19543,2.0423664 0.81203,0.453613 1.76592,0.701078 2.69448,0.543315 0.90248,-0.130521 1.6170902,-0.7561764 2.3030502,-1.3063314 0.75332,-0.614885 1.45438,-1.783637 2.26028,-1.966 1.537797,-0.351237 2.543547,0.422509 3.619987,0.987606 0.55354,0.340085 1.16498,0.573783 1.73346,1.153393 0.3379,-0.517706 0.48812,-1.692045 0.53874,-1.973799 -0.28192,-0.03322 -0.48961,-0.269267 -0.75869,-0.349458 -0.69225,-0.300957 -1.37384,-0.626107 -2.06573,-0.927525 -0.71392,-0.291805 -1.47845,-0.466446 -2.25307,-0.433791 z"
       style="fill:#1fc2c6;fill-opacity:1;stroke:#000000;stroke-width:0.1;stroke-linecap:round;stroke-miterlimit:4;stroke-dasharray:none;stroke-opacity:1;paint-order:fill markers stroke"
       sodipodi:nodetypes="ccccccccccccccccccc" />
    <path
       style="fill:#1ca8ab;stroke:#000000;stroke-width:0.1"
       d="M -17.51978,6.269033 Z"
       id="path21479"
       inkscape:path-effect="#path-effect21481-6"
       inkscape:original-d="m -17.51978,6.269033 c 2.64e-4,2.65e-4 2.64e-4,2.65e-4 0,0 z" />
  </g>
</svg>
