<?xml version="1.0" encoding="UTF-8" standalone="no"?>
<!-- Created with Inkscape (http://www.inkscape.org/) -->

<svg
   width="71.072372mm"
   height="86.53727mm"
   viewBox="0 0 71.072372 86.53727"
   version="1.1"
   id="svg36580"
   inkscape:version="1.2.1 (9c6d41e, 2022-07-14)"
   sodipodi:docname="gram-positive-test.svg"
   xmlns:inkscape="http://www.inkscape.org/namespaces/inkscape"
   xmlns:sodipodi="http://sodipodi.sourceforge.net/DTD/sodipodi-0.dtd"
   xmlns:xlink="http://www.w3.org/1999/xlink"
   xmlns="http://www.w3.org/2000/svg"
   xmlns:svg="http://www.w3.org/2000/svg">
  <sodipodi:namedview
     id="namedview36582"
     pagecolor="#ffffff"
     bordercolor="#999999"
     borderopacity="1"
     inkscape:showpageshadow="0"
     inkscape:pageopacity="0"
     inkscape:pagecheckerboard="0"
     inkscape:deskcolor="#d1d1d1"
     inkscape:document-units="mm"
     showgrid="false"
     inkscape:zoom="0.914906"
     inkscape:cx="142.6376"
     inkscape:cy="382.55296"
     inkscape:window-width="2240"
     inkscape:window-height="1232"
     inkscape:window-x="0"
     inkscape:window-y="28"
     inkscape:window-maximized="0"
     inkscape:current-layer="layer1" />
  <defs
     id="defs36577">
    <pattern
       id="SVGID_1_"
       xlink:href="#譁ｰ隕上ヱ繧ｿ繝ｼ繝ｳ繧ｹ繧ｦ繧ｩ繝メ_4"
       patternTransform="matrix(0.3476,-0.3476,0.3476,0.3476,-1797.1891,-7535.1416)">
		</pattern>
  </defs>
  <g
     inkscape:label="Layer 1"
     inkscape:groupmode="layer"
     id="layer1"
     transform="translate(-67.4161,-47.248404)">
    <g
       id="g36575"
       transform="matrix(0.26458333,0,0,0.26458333,50.035621,37.601696)">
      <rect
         x="65.690002"
         y="241.55"
         class="st3"
         width="268.62"
         height="121.98"
         id="rect2001"
         style="fill:#e7e4e3" />
      <rect
         x="65.690002"
         y="241.55"
         class="st4"
         width="268.62"
         height="54.200001"
         id="rect2003"
         style="fill:#bab7b1" />
      <rect
         x="65.690002"
         y="225.21001"
         class="st5"
         width="268.62"
         height="16.33"
         id="rect2005"
         style="fill:#6c6a61" />
      <rect
         x="65.690002"
         y="86.900002"
         class="st6"
         width="268.62"
         height="138.31"
         id="peptidoglycan"
         inkscape:label="peptidoglycan"
         style="fill:#e1e9ef" />
      <rect
         x="65.690002"
         y="86.900002"
         class="st7"
         width="268.62"
         height="138.31"
         id="rect2010"
         style="opacity:0.4;fill:url(#SVGID_1_)" />
      <g
         id="g8292">
        <g
           id="g2174">
			<g
   id="g2016">
				<polygon
   class="st8"
   points="69.73,246.96 67.8,253.72 69.77,260.62 67.76,267.64 66.8,267.37 68.73,260.62 66.76,253.72 68.77,246.69 "
   id="polygon2012"
   style="fill:#56544c" />

				<polygon
   class="st8"
   points="74.04,253.72 72.07,260.62 74,267.37 73.04,267.64 71.03,260.62 73,253.72 71.07,246.96 72.03,246.69 "
   id="polygon2014"
   style="fill:#56544c" />

			</g>

			<g
   id="g2022">
				<polygon
   class="st8"
   points="79.7,246.96 77.77,253.72 79.74,260.62 77.73,267.64 76.77,267.37 78.7,260.62 76.73,253.72 78.74,246.69 "
   id="polygon2018"
   style="fill:#56544c" />

				<polygon
   class="st8"
   points="84.01,253.72 82.04,260.62 83.97,267.37 83,267.64 81,260.62 82.97,253.72 81.04,246.96 82,246.69 "
   id="polygon2020"
   style="fill:#56544c" />

			</g>

			<g
   id="g2028">
				<polygon
   class="st8"
   points="89.67,246.96 87.74,253.72 89.71,260.62 87.7,267.64 86.74,267.37 88.67,260.62 86.7,253.72 88.71,246.69 "
   id="polygon2024"
   style="fill:#56544c" />

				<polygon
   class="st8"
   points="93.97,253.72 92.01,260.62 93.94,267.37 92.97,267.64 90.97,260.62 92.93,253.72 91.01,246.96 91.97,246.69 "
   id="polygon2026"
   style="fill:#56544c" />

			</g>

			<g
   id="g2034">
				<polygon
   class="st8"
   points="99.64,246.96 97.71,253.72 99.68,260.62 97.67,267.64 96.71,267.37 98.64,260.62 96.67,253.72 98.68,246.69 "
   id="polygon2030"
   style="fill:#56544c" />

				<polygon
   class="st8"
   points="103.94,253.72 101.98,260.62 103.9,267.37 102.94,267.64 100.94,260.62 102.9,253.72 100.98,246.96 101.94,246.69 "
   id="polygon2032"
   style="fill:#56544c" />

			</g>

			<g
   id="g2040">
				<polygon
   class="st8"
   points="109.61,246.96 107.68,253.72 109.65,260.62 107.64,267.64 106.68,267.37 108.61,260.62 106.64,253.72 108.64,246.69 "
   id="polygon2036"
   style="fill:#56544c" />

				<polygon
   class="st8"
   points="113.91,253.72 111.95,260.62 113.87,267.37 112.91,267.64 110.91,260.62 112.87,253.72 110.95,246.96 111.91,246.69 "
   id="polygon2038"
   style="fill:#56544c" />

			</g>

			<g
   id="g2046">
				<polygon
   class="st8"
   points="119.58,246.96 117.65,253.72 119.61,260.62 117.61,267.64 116.65,267.37 118.57,260.62 116.61,253.72 118.61,246.69 "
   id="polygon2042"
   style="fill:#56544c" />

				<polygon
   class="st8"
   points="123.88,253.72 121.92,260.62 123.84,267.37 122.88,267.64 120.88,260.62 122.84,253.72 120.92,246.96 121.88,246.69 "
   id="polygon2044"
   style="fill:#56544c" />

			</g>

			<g
   id="g2052">
				<polygon
   class="st8"
   points="129.54,246.96 127.62,253.72 129.58,260.62 127.58,267.64 126.62,267.37 128.54,260.62 126.58,253.72 128.58,246.69 "
   id="polygon2048"
   style="fill:#56544c" />

				<polygon
   class="st8"
   points="133.85,253.72 131.89,260.62 133.81,267.37 132.85,267.64 130.85,260.62 132.81,253.72 130.88,246.96 131.85,246.69 "
   id="polygon2050"
   style="fill:#56544c" />

			</g>

			<g
   id="g2058">
				<polygon
   class="st8"
   points="139.51,246.96 137.59,253.72 139.55,260.62 137.55,267.64 136.59,267.37 138.51,260.62 136.55,253.72 138.55,246.69 "
   id="polygon2054"
   style="fill:#56544c" />

				<polygon
   class="st8"
   points="143.82,253.72 141.85,260.62 143.78,267.37 142.82,267.64 140.81,260.62 142.78,253.72 140.85,246.96 141.82,246.69 "
   id="polygon2056"
   style="fill:#56544c" />

			</g>

			<g
   id="g2064">
				<polygon
   class="st8"
   points="149.48,246.96 147.56,253.72 149.52,260.62 147.52,267.64 146.56,267.37 148.48,260.62 146.52,253.72 148.52,246.69 "
   id="polygon2060"
   style="fill:#56544c" />

				<polygon
   class="st8"
   points="153.79,253.72 151.82,260.62 153.75,267.37 152.79,267.64 150.78,260.62 152.75,253.72 150.82,246.96 151.79,246.69 "
   id="polygon2062"
   style="fill:#56544c" />

			</g>

			<g
   id="g2070">
				<polygon
   class="st8"
   points="159.45,246.96 157.53,253.72 159.49,260.62 157.49,267.64 156.52,267.37 158.45,260.62 156.49,253.72 158.49,246.69 "
   id="polygon2066"
   style="fill:#56544c" />

				<polygon
   class="st8"
   points="163.76,253.72 161.79,260.62 163.72,267.37 162.76,267.64 160.75,260.62 162.72,253.72 160.79,246.96 161.75,246.69 "
   id="polygon2068"
   style="fill:#56544c" />

			</g>

			<g
   id="g2076">
				<polygon
   class="st8"
   points="169.42,246.96 167.5,253.72 169.46,260.62 167.46,267.64 166.49,267.37 168.42,260.62 166.46,253.72 168.46,246.69 "
   id="polygon2072"
   style="fill:#56544c" />

				<polygon
   class="st8"
   points="173.73,253.72 171.76,260.62 173.69,267.37 172.73,267.64 170.72,260.62 172.69,253.72 170.76,246.96 171.72,246.69 "
   id="polygon2074"
   style="fill:#56544c" />

			</g>

			<g
   id="g2082">
				<polygon
   class="st8"
   points="179.39,246.96 177.46,253.72 179.43,260.62 177.43,267.64 176.46,267.37 178.39,260.62 176.42,253.72 178.43,246.69 "
   id="polygon2078"
   style="fill:#56544c" />

				<polygon
   class="st8"
   points="183.7,253.72 181.73,260.62 183.66,267.37 182.7,267.64 180.69,260.62 182.66,253.72 180.73,246.96 181.69,246.69 "
   id="polygon2080"
   style="fill:#56544c" />

			</g>

			<g
   id="g2088">
				<polygon
   class="st8"
   points="189.36,246.96 187.43,253.72 189.4,260.62 187.39,267.64 186.43,267.37 188.36,260.62 186.39,253.72 188.4,246.69 "
   id="polygon2084"
   style="fill:#56544c" />

				<polygon
   class="st8"
   points="193.67,253.72 191.7,260.62 193.63,267.37 192.67,267.64 190.66,260.62 192.63,253.72 190.7,246.96 191.66,246.69 "
   id="polygon2086"
   style="fill:#56544c" />

			</g>

			<g
   id="g2094">
				<polygon
   class="st8"
   points="199.33,246.96 197.4,253.72 199.37,260.62 197.36,267.64 196.4,267.37 198.33,260.62 196.36,253.72 198.37,246.69 "
   id="polygon2090"
   style="fill:#56544c" />

				<polygon
   class="st8"
   points="203.64,253.72 201.67,260.62 203.6,267.37 202.64,267.64 200.63,260.62 202.6,253.72 200.67,246.96 201.63,246.69 "
   id="polygon2092"
   style="fill:#56544c" />

			</g>

			<g
   id="g2100">
				<polygon
   class="st8"
   points="209.3,246.96 207.37,253.72 209.34,260.62 207.33,267.64 206.37,267.37 208.3,260.62 206.33,253.72 208.34,246.69 "
   id="polygon2096"
   style="fill:#56544c" />

				<polygon
   class="st8"
   points="213.61,253.72 211.64,260.62 213.57,267.37 212.61,267.64 210.6,260.62 212.57,253.72 210.64,246.96 211.6,246.69 "
   id="polygon2098"
   style="fill:#56544c" />

			</g>

			<g
   id="g2106">
				<polygon
   class="st8"
   points="219.27,246.96 217.34,253.72 219.31,260.62 217.3,267.64 216.34,267.37 218.27,260.62 216.3,253.72 218.31,246.69 "
   id="polygon2102"
   style="fill:#56544c" />

				<polygon
   class="st8"
   points="223.58,253.72 221.61,260.62 223.54,267.37 222.58,267.64 220.57,260.62 222.54,253.72 220.61,246.96 221.57,246.69 "
   id="polygon2104"
   style="fill:#56544c" />

			</g>

			<g
   id="g2112">
				<polygon
   class="st8"
   points="229.24,246.96 227.31,253.72 229.28,260.62 227.27,267.64 226.31,267.37 228.24,260.62 226.27,253.72 228.28,246.69 "
   id="polygon2108"
   style="fill:#56544c" />

				<polygon
   class="st8"
   points="233.54,253.72 231.58,260.62 233.51,267.37 232.54,267.64 230.54,260.62 232.51,253.72 230.58,246.96 231.54,246.69 "
   id="polygon2110"
   style="fill:#56544c" />

			</g>

			<g
   id="g2118">
				<polygon
   class="st8"
   points="239.21,246.96 237.28,253.72 239.25,260.62 237.24,267.64 236.28,267.37 238.21,260.62 236.24,253.72 238.25,246.69 "
   id="polygon2114"
   style="fill:#56544c" />

				<polygon
   class="st8"
   points="243.51,253.72 241.55,260.62 243.47,267.37 242.51,267.64 240.51,260.62 242.47,253.72 240.55,246.96 241.51,246.69 "
   id="polygon2116"
   style="fill:#56544c" />

			</g>

			<g
   id="g2124">
				<polygon
   class="st8"
   points="249.18,246.96 247.25,253.72 249.22,260.62 247.21,267.64 246.25,267.37 248.18,260.62 246.21,253.72 248.22,246.69 "
   id="polygon2120"
   style="fill:#56544c" />

				<polygon
   class="st8"
   points="253.48,253.72 251.52,260.62 253.44,267.37 252.48,267.64 250.48,260.62 252.44,253.72 250.52,246.96 251.48,246.69 "
   id="polygon2122"
   style="fill:#56544c" />

			</g>

			<g
   id="g2130">
				<polygon
   class="st8"
   points="259.15,246.96 257.22,253.72 259.18,260.62 257.18,267.64 256.22,267.37 258.15,260.62 256.18,253.72 258.18,246.69 "
   id="polygon2126"
   style="fill:#56544c" />

				<polygon
   class="st8"
   points="263.45,253.72 261.49,260.62 263.41,267.37 262.45,267.64 260.45,260.62 262.41,253.72 260.49,246.96 261.45,246.69 "
   id="polygon2128"
   style="fill:#56544c" />

			</g>

			<g
   id="g2136">
				<polygon
   class="st8"
   points="269.12,246.96 267.19,253.72 269.15,260.62 267.15,267.64 266.19,267.37 268.12,260.62 266.15,253.72 268.15,246.69 "
   id="polygon2132"
   style="fill:#56544c" />

				<polygon
   class="st8"
   points="273.42,253.72 271.46,260.62 273.38,267.37 272.42,267.64 270.42,260.62 272.38,253.72 270.46,246.96 271.42,246.69 "
   id="polygon2134"
   style="fill:#56544c" />

			</g>

			<g
   id="g2142">
				<polygon
   class="st8"
   points="279.08,246.96 277.16,253.72 279.12,260.62 277.12,267.64 276.16,267.37 278.08,260.62 276.12,253.72 278.12,246.69 "
   id="polygon2138"
   style="fill:#56544c" />

				<polygon
   class="st8"
   points="283.39,253.72 281.42,260.62 283.35,267.37 282.39,267.64 280.39,260.62 282.35,253.72 280.42,246.96 281.39,246.69 "
   id="polygon2140"
   style="fill:#56544c" />

			</g>

			<g
   id="g2148">
				<polygon
   class="st8"
   points="289.05,246.96 287.13,253.72 289.09,260.62 287.09,267.64 286.13,267.37 288.05,260.62 286.09,253.72 288.09,246.69 "
   id="polygon2144"
   style="fill:#56544c" />

				<polygon
   class="st8"
   points="293.36,253.72 291.39,260.62 293.32,267.37 292.36,267.64 290.36,260.62 292.32,253.72 290.39,246.96 291.36,246.69 "
   id="polygon2146"
   style="fill:#56544c" />

			</g>

			<g
   id="g2154">
				<polygon
   class="st8"
   points="299.02,246.96 297.1,253.72 299.06,260.62 297.06,267.64 296.1,267.37 298.02,260.62 296.06,253.72 298.06,246.69 "
   id="polygon2150"
   style="fill:#56544c" />

				<polygon
   class="st8"
   points="303.33,253.72 301.36,260.62 303.29,267.37 302.33,267.64 300.32,260.62 302.29,253.72 300.36,246.96 301.32,246.69 "
   id="polygon2152"
   style="fill:#56544c" />

			</g>

			<g
   id="g2160">
				<polygon
   class="st8"
   points="308.99,246.96 307.07,253.72 309.03,260.62 307.03,267.64 306.07,267.37 307.99,260.62 306.03,253.72 308.03,246.69 "
   id="polygon2156"
   style="fill:#56544c" />

				<polygon
   class="st8"
   points="313.3,253.72 311.33,260.62 313.26,267.37 312.3,267.64 310.29,260.62 312.26,253.72 310.33,246.96 311.29,246.69 "
   id="polygon2158"
   style="fill:#56544c" />

			</g>

			<g
   id="g2166">
				<polygon
   class="st8"
   points="318.96,246.96 317.03,253.72 319,260.62 317,267.64 316.03,267.37 317.96,260.62 316,253.72 318,246.69 "
   id="polygon2162"
   style="fill:#56544c" />

				<polygon
   class="st8"
   points="323.27,253.72 321.3,260.62 323.23,267.37 322.27,267.64 320.26,260.62 322.23,253.72 320.3,246.96 321.26,246.69 "
   id="polygon2164"
   style="fill:#56544c" />

			</g>

			<g
   id="g2172">
				<polygon
   class="st8"
   points="328.93,246.96 327,253.72 328.97,260.62 326.96,267.64 326,267.37 327.93,260.62 325.96,253.72 327.97,246.69 "
   id="polygon2168"
   style="fill:#56544c" />

				<polygon
   class="st8"
   points="333.24,253.72 331.27,260.62 333.2,267.37 332.24,267.64 330.23,260.62 332.2,253.72 330.27,246.96 331.23,246.69 "
   id="polygon2170"
   style="fill:#56544c" />

			</g>

		</g>
        <g
           id="g2338">
			<g
   id="g2180">
				<polygon
   class="st8"
   points="69.77,276.68 67.8,283.57 69.73,290.33 68.77,290.6 66.76,283.57 68.73,276.68 66.8,269.93 67.76,269.65 "
   id="polygon2176"
   style="fill:#56544c" />

				<polygon
   class="st8"
   points="74,269.93 72.07,276.68 74.04,283.57 72.03,290.6 71.07,290.33 73,283.57 71.03,276.68 73.04,269.65 "
   id="polygon2178"
   style="fill:#56544c" />

			</g>

			<g
   id="g2186">
				<polygon
   class="st8"
   points="79.74,276.68 77.77,283.57 79.7,290.33 78.74,290.6 76.73,283.57 78.7,276.68 76.77,269.93 77.73,269.65 "
   id="polygon2182"
   style="fill:#56544c" />

				<polygon
   class="st8"
   points="83.97,269.93 82.04,276.68 84.01,283.57 82,290.6 81.04,290.33 82.97,283.57 81,276.68 83,269.65 "
   id="polygon2184"
   style="fill:#56544c" />

			</g>

			<g
   id="g2192">
				<polygon
   class="st8"
   points="89.71,276.68 87.74,283.57 89.67,290.33 88.71,290.6 86.7,283.57 88.67,276.68 86.74,269.93 87.7,269.65 "
   id="polygon2188"
   style="fill:#56544c" />

				<polygon
   class="st8"
   points="93.94,269.93 92.01,276.68 93.97,283.57 91.97,290.6 91.01,290.33 92.93,283.57 90.97,276.68 92.97,269.65 "
   id="polygon2190"
   style="fill:#56544c" />

			</g>

			<g
   id="g2198">
				<polygon
   class="st8"
   points="99.68,276.68 97.71,283.57 99.64,290.33 98.68,290.6 96.67,283.57 98.64,276.68 96.71,269.93 97.67,269.65 "
   id="polygon2194"
   style="fill:#56544c" />

				<polygon
   class="st8"
   points="103.9,269.93 101.98,276.68 103.94,283.57 101.94,290.6 100.98,290.33 102.9,283.57 100.94,276.68 102.94,269.65 "
   id="polygon2196"
   style="fill:#56544c" />

			</g>

			<g
   id="g2204">
				<polygon
   class="st8"
   points="109.65,276.68 107.68,283.57 109.61,290.33 108.64,290.6 106.64,283.57 108.61,276.68 106.68,269.93 107.64,269.65 "
   id="polygon2200"
   style="fill:#56544c" />

				<polygon
   class="st8"
   points="113.87,269.93 111.95,276.68 113.91,283.57 111.91,290.6 110.95,290.33 112.87,283.57 110.91,276.68 112.91,269.65 "
   id="polygon2202"
   style="fill:#56544c" />

			</g>

			<g
   id="g2210">
				<polygon
   class="st8"
   points="119.61,276.68 117.65,283.57 119.58,290.33 118.61,290.6 116.61,283.57 118.57,276.68 116.65,269.93 117.61,269.65 "
   id="polygon2206"
   style="fill:#56544c" />

				<polygon
   class="st8"
   points="123.84,269.93 121.92,276.68 123.88,283.57 121.88,290.6 120.92,290.33 122.84,283.57 120.88,276.68 122.88,269.65 "
   id="polygon2208"
   style="fill:#56544c" />

			</g>

			<g
   id="g2216">
				<polygon
   class="st8"
   points="129.58,276.68 127.62,283.57 129.54,290.33 128.58,290.6 126.58,283.57 128.54,276.68 126.62,269.93 127.58,269.65 "
   id="polygon2212"
   style="fill:#56544c" />

				<polygon
   class="st8"
   points="133.81,269.93 131.89,276.68 133.85,283.57 131.85,290.6 130.88,290.33 132.81,283.57 130.85,276.68 132.85,269.65 "
   id="polygon2214"
   style="fill:#56544c" />

			</g>

			<g
   id="g2222">
				<polygon
   class="st8"
   points="139.55,276.68 137.59,283.57 139.51,290.33 138.55,290.6 136.55,283.57 138.51,276.68 136.59,269.93 137.55,269.65 "
   id="polygon2218"
   style="fill:#56544c" />

				<polygon
   class="st8"
   points="143.78,269.93 141.85,276.68 143.82,283.57 141.82,290.6 140.85,290.33 142.78,283.57 140.81,276.68 142.82,269.65 "
   id="polygon2220"
   style="fill:#56544c" />

			</g>

			<g
   id="g2228">
				<polygon
   class="st8"
   points="149.52,276.68 147.56,283.57 149.48,290.33 148.52,290.6 146.52,283.57 148.48,276.68 146.56,269.93 147.52,269.65 "
   id="polygon2224"
   style="fill:#56544c" />

				<polygon
   class="st8"
   points="153.75,269.93 151.82,276.68 153.79,283.57 151.79,290.6 150.82,290.33 152.75,283.57 150.78,276.68 152.79,269.65 "
   id="polygon2226"
   style="fill:#56544c" />

			</g>

			<g
   id="g2234">
				<polygon
   class="st8"
   points="159.49,276.68 157.53,283.57 159.45,290.33 158.49,290.6 156.49,283.57 158.45,276.68 156.52,269.93 157.49,269.65 "
   id="polygon2230"
   style="fill:#56544c" />

				<polygon
   class="st8"
   points="163.72,269.93 161.79,276.68 163.76,283.57 161.75,290.6 160.79,290.33 162.72,283.57 160.75,276.68 162.76,269.65 "
   id="polygon2232"
   style="fill:#56544c" />

			</g>

			<g
   id="g2240">
				<polygon
   class="st8"
   points="169.46,276.68 167.5,283.57 169.42,290.33 168.46,290.6 166.46,283.57 168.42,276.68 166.49,269.93 167.46,269.65 "
   id="polygon2236"
   style="fill:#56544c" />

				<polygon
   class="st8"
   points="173.69,269.93 171.76,276.68 173.73,283.57 171.72,290.6 170.76,290.33 172.69,283.57 170.72,276.68 172.73,269.65 "
   id="polygon2238"
   style="fill:#56544c" />

			</g>

			<g
   id="g2246">
				<polygon
   class="st8"
   points="179.43,276.68 177.46,283.57 179.39,290.33 178.43,290.6 176.42,283.57 178.39,276.68 176.46,269.93 177.43,269.65 "
   id="polygon2242"
   style="fill:#56544c" />

				<polygon
   class="st8"
   points="183.66,269.93 181.73,276.68 183.7,283.57 181.69,290.6 180.73,290.33 182.66,283.57 180.69,276.68 182.7,269.65 "
   id="polygon2244"
   style="fill:#56544c" />

			</g>

			<g
   id="g2252">
				<polygon
   class="st8"
   points="189.4,276.68 187.43,283.57 189.36,290.33 188.4,290.6 186.39,283.57 188.36,276.68 186.43,269.93 187.39,269.65 "
   id="polygon2248"
   style="fill:#56544c" />

				<polygon
   class="st8"
   points="193.63,269.93 191.7,276.68 193.67,283.57 191.66,290.6 190.7,290.33 192.63,283.57 190.66,276.68 192.67,269.65 "
   id="polygon2250"
   style="fill:#56544c" />

			</g>

			<g
   id="g2258">
				<polygon
   class="st8"
   points="199.37,276.68 197.4,283.57 199.33,290.33 198.37,290.6 196.36,283.57 198.33,276.68 196.4,269.93 197.36,269.65 "
   id="polygon2254"
   style="fill:#56544c" />

				<polygon
   class="st8"
   points="203.6,269.93 201.67,276.68 203.64,283.57 201.63,290.6 200.67,290.33 202.6,283.57 200.63,276.68 202.64,269.65 "
   id="polygon2256"
   style="fill:#56544c" />

			</g>

			<g
   id="g2264">
				<polygon
   class="st8"
   points="209.34,276.68 207.37,283.57 209.3,290.33 208.34,290.6 206.33,283.57 208.3,276.68 206.37,269.93 207.33,269.65 "
   id="polygon2260"
   style="fill:#56544c" />

				<polygon
   class="st8"
   points="213.57,269.93 211.64,276.68 213.61,283.57 211.6,290.6 210.64,290.33 212.57,283.57 210.6,276.68 212.61,269.65 "
   id="polygon2262"
   style="fill:#56544c" />

			</g>

			<g
   id="g2270">
				<polygon
   class="st8"
   points="219.31,276.68 217.34,283.57 219.27,290.33 218.31,290.6 216.3,283.57 218.27,276.68 216.34,269.93 217.3,269.65 "
   id="polygon2266"
   style="fill:#56544c" />

				<polygon
   class="st8"
   points="223.54,269.93 221.61,276.68 223.58,283.57 221.57,290.6 220.61,290.33 222.54,283.57 220.57,276.68 222.58,269.65 "
   id="polygon2268"
   style="fill:#56544c" />

			</g>

			<g
   id="g2276">
				<polygon
   class="st8"
   points="229.28,276.68 227.31,283.57 229.24,290.33 228.28,290.6 226.27,283.57 228.24,276.68 226.31,269.93 227.27,269.65 "
   id="polygon2272"
   style="fill:#56544c" />

				<polygon
   class="st8"
   points="233.51,269.93 231.58,276.68 233.54,283.57 231.54,290.6 230.58,290.33 232.51,283.57 230.54,276.68 232.54,269.65 "
   id="polygon2274"
   style="fill:#56544c" />

			</g>

			<g
   id="g2282">
				<polygon
   class="st8"
   points="239.25,276.68 237.28,283.57 239.21,290.33 238.25,290.6 236.24,283.57 238.21,276.68 236.28,269.93 237.24,269.65 "
   id="polygon2278"
   style="fill:#56544c" />

				<polygon
   class="st8"
   points="243.47,269.93 241.55,276.68 243.51,283.57 241.51,290.6 240.55,290.33 242.47,283.57 240.51,276.68 242.51,269.65 "
   id="polygon2280"
   style="fill:#56544c" />

			</g>

			<g
   id="g2288">
				<polygon
   class="st8"
   points="249.22,276.68 247.25,283.57 249.18,290.33 248.22,290.6 246.21,283.57 248.18,276.68 246.25,269.93 247.21,269.65 "
   id="polygon2284"
   style="fill:#56544c" />

				<polygon
   class="st8"
   points="253.44,269.93 251.52,276.68 253.48,283.57 251.48,290.6 250.52,290.33 252.44,283.57 250.48,276.68 252.48,269.65 "
   id="polygon2286"
   style="fill:#56544c" />

			</g>

			<g
   id="g2294">
				<polygon
   class="st8"
   points="259.18,276.68 257.22,283.57 259.15,290.33 258.18,290.6 256.18,283.57 258.15,276.68 256.22,269.93 257.18,269.65 "
   id="polygon2290"
   style="fill:#56544c" />

				<polygon
   class="st8"
   points="263.41,269.93 261.49,276.68 263.45,283.57 261.45,290.6 260.49,290.33 262.41,283.57 260.45,276.68 262.45,269.65 "
   id="polygon2292"
   style="fill:#56544c" />

			</g>

			<g
   id="g2300">
				<polygon
   class="st8"
   points="269.15,276.68 267.19,283.57 269.12,290.33 268.15,290.6 266.15,283.57 268.12,276.68 266.19,269.93 267.15,269.65 "
   id="polygon2296"
   style="fill:#56544c" />

				<polygon
   class="st8"
   points="273.38,269.93 271.46,276.68 273.42,283.57 271.42,290.6 270.46,290.33 272.38,283.57 270.42,276.68 272.42,269.65 "
   id="polygon2298"
   style="fill:#56544c" />

			</g>

			<g
   id="g2306">
				<polygon
   class="st8"
   points="279.12,276.68 277.16,283.57 279.08,290.33 278.12,290.6 276.12,283.57 278.08,276.68 276.16,269.93 277.12,269.65 "
   id="polygon2302"
   style="fill:#56544c" />

				<polygon
   class="st8"
   points="283.35,269.93 281.42,276.68 283.39,283.57 281.39,290.6 280.42,290.33 282.35,283.57 280.39,276.68 282.39,269.65 "
   id="polygon2304"
   style="fill:#56544c" />

			</g>

			<g
   id="g2312">
				<polygon
   class="st8"
   points="289.09,276.68 287.13,283.57 289.05,290.33 288.09,290.6 286.09,283.57 288.05,276.68 286.13,269.93 287.09,269.65 "
   id="polygon2308"
   style="fill:#56544c" />

				<polygon
   class="st8"
   points="293.32,269.93 291.39,276.68 293.36,283.57 291.36,290.6 290.39,290.33 292.32,283.57 290.36,276.68 292.36,269.65 "
   id="polygon2310"
   style="fill:#56544c" />

			</g>

			<g
   id="g2318">
				<polygon
   class="st8"
   points="299.06,276.68 297.1,283.57 299.02,290.33 298.06,290.6 296.06,283.57 298.02,276.68 296.1,269.93 297.06,269.65 "
   id="polygon2314"
   style="fill:#56544c" />

				<polygon
   class="st8"
   points="303.29,269.93 301.36,276.68 303.33,283.57 301.32,290.6 300.36,290.33 302.29,283.57 300.32,276.68 302.33,269.65 "
   id="polygon2316"
   style="fill:#56544c" />

			</g>

			<g
   id="g2324">
				<polygon
   class="st8"
   points="309.03,276.68 307.07,283.57 308.99,290.33 308.03,290.6 306.03,283.57 307.99,276.68 306.07,269.93 307.03,269.65 "
   id="polygon2320"
   style="fill:#56544c" />

				<polygon
   class="st8"
   points="313.26,269.93 311.33,276.68 313.3,283.57 311.29,290.6 310.33,290.33 312.26,283.57 310.29,276.68 312.3,269.65 "
   id="polygon2322"
   style="fill:#56544c" />

			</g>

			<g
   id="g2330">
				<polygon
   class="st8"
   points="319,276.68 317.03,283.57 318.96,290.33 318,290.6 316,283.57 317.96,276.68 316.03,269.93 317,269.65 "
   id="polygon2326"
   style="fill:#56544c" />

				<polygon
   class="st8"
   points="323.23,269.93 321.3,276.68 323.27,283.57 321.26,290.6 320.3,290.33 322.23,283.57 320.26,276.68 322.27,269.65 "
   id="polygon2328"
   style="fill:#56544c" />

			</g>

			<g
   id="g2336">
				<polygon
   class="st8"
   points="328.97,276.68 327,283.57 328.93,290.33 327.97,290.6 325.96,283.57 327.93,276.68 326,269.93 326.96,269.65 "
   id="polygon2332"
   style="fill:#56544c" />

				<polygon
   class="st8"
   points="333.2,269.93 331.27,276.68 333.24,283.57 331.23,290.6 330.27,290.33 332.2,283.57 330.23,276.68 332.24,269.65 "
   id="polygon2334"
   style="fill:#56544c" />

			</g>

		</g>
        <g
           id="g2394">
			<ellipse
   class="st9"
   cx="70.400002"
   cy="241.55"
   rx="4.71"
   ry="6.0500002"
   id="ellipse2340"
   style="fill:#e2cd71" />

			<ellipse
   class="st9"
   cx="80.370003"
   cy="241.55"
   rx="4.71"
   ry="6.0500002"
   id="ellipse2342"
   style="fill:#e2cd71" />

			<ellipse
   class="st9"
   cx="90.339996"
   cy="241.55"
   rx="4.71"
   ry="6.0500002"
   id="ellipse2344"
   style="fill:#e2cd71" />

			<ellipse
   class="st9"
   cx="100.31"
   cy="241.55"
   rx="4.71"
   ry="6.0500002"
   id="ellipse2346"
   style="fill:#e2cd71" />

			<ellipse
   class="st10"
   cx="110.28"
   cy="241.55"
   rx="4.71"
   ry="6.0500002"
   id="ellipse2348"
   style="fill:#87b27d" />

			<ellipse
   class="st9"
   cx="120.25"
   cy="241.55"
   rx="4.71"
   ry="6.0500002"
   id="ellipse2350"
   style="fill:#e2cd71" />

			<ellipse
   class="st9"
   cx="130.21001"
   cy="241.55"
   rx="4.71"
   ry="6.0500002"
   id="ellipse2352"
   style="fill:#e2cd71" />

			<ellipse
   class="st9"
   cx="140.17999"
   cy="241.55"
   rx="4.71"
   ry="6.0500002"
   id="ellipse2354"
   style="fill:#e2cd71" />

			<ellipse
   class="st10"
   cx="150.14999"
   cy="241.55"
   rx="4.71"
   ry="6.0500002"
   id="ellipse2356"
   style="fill:#87b27d" />

			<ellipse
   class="st9"
   cx="160.12"
   cy="241.55"
   rx="4.71"
   ry="6.0500002"
   id="ellipse2358"
   style="fill:#e2cd71" />

			<ellipse
   class="st9"
   cx="170.09"
   cy="241.55"
   rx="4.71"
   ry="6.0500002"
   id="ellipse2360"
   style="fill:#e2cd71" />

			<ellipse
   class="st9"
   cx="180.06"
   cy="241.55"
   rx="4.71"
   ry="6.0500002"
   id="ellipse2362"
   style="fill:#e2cd71" />

			<ellipse
   class="st9"
   cx="190.03"
   cy="241.55"
   rx="4.71"
   ry="6.0500002"
   id="ellipse2364"
   style="fill:#e2cd71" />

			<ellipse
   class="st9"
   cx="200"
   cy="241.55"
   rx="4.71"
   ry="6.0500002"
   id="ellipse2366"
   style="fill:#e2cd71" />

			<ellipse
   class="st9"
   cx="209.97"
   cy="241.55"
   rx="4.71"
   ry="6.0500002"
   id="ellipse2368"
   style="fill:#e2cd71" />

			<ellipse
   class="st9"
   cx="219.94"
   cy="241.55"
   rx="4.71"
   ry="6.0500002"
   id="ellipse2370"
   style="fill:#e2cd71" />

			<ellipse
   class="st9"
   cx="229.91"
   cy="241.55"
   rx="4.71"
   ry="6.0500002"
   id="ellipse2372"
   style="fill:#e2cd71" />

			<ellipse
   class="st9"
   cx="239.88"
   cy="241.55"
   rx="4.71"
   ry="6.0500002"
   id="ellipse2374"
   style="fill:#e2cd71" />

			<ellipse
   class="st9"
   cx="249.85001"
   cy="241.55"
   rx="4.71"
   ry="6.0500002"
   id="ellipse2376"
   style="fill:#e2cd71" />

			<ellipse
   class="st9"
   cx="259.82001"
   cy="241.55"
   rx="4.71"
   ry="6.0500002"
   id="ellipse2378"
   style="fill:#e2cd71" />

			<ellipse
   class="st9"
   cx="269.79001"
   cy="241.55"
   rx="4.71"
   ry="6.0500002"
   id="ellipse2380"
   style="fill:#e2cd71" />

			<ellipse
   class="st10"
   cx="279.75"
   cy="241.55"
   rx="4.71"
   ry="6.0500002"
   id="ellipse2382"
   style="fill:#87b27d" />

			<ellipse
   class="st9"
   cx="289.72"
   cy="241.55"
   rx="4.71"
   ry="6.0500002"
   id="ellipse2384"
   style="fill:#e2cd71" />

			<ellipse
   class="st9"
   cx="299.69"
   cy="241.55"
   rx="4.71"
   ry="6.0500002"
   id="ellipse2386"
   style="fill:#e2cd71" />

			<ellipse
   class="st9"
   cx="309.66"
   cy="241.55"
   rx="4.71"
   ry="6.0500002"
   id="ellipse2388"
   style="fill:#e2cd71" />

			<ellipse
   class="st9"
   cx="319.63"
   cy="241.55"
   rx="4.71"
   ry="6.0500002"
   id="ellipse2390"
   style="fill:#e2cd71" />

			<ellipse
   class="st9"
   cx="329.60001"
   cy="241.55"
   rx="4.71"
   ry="6.0500002"
   id="ellipse2392"
   style="fill:#e2cd71" />

		</g>
        <g
           id="g2450">
			<ellipse
   class="st9"
   cx="70.400002"
   cy="295.75"
   rx="4.71"
   ry="6.0500002"
   id="ellipse2396"
   style="fill:#e2cd71" />

			<ellipse
   class="st9"
   cx="80.370003"
   cy="295.75"
   rx="4.71"
   ry="6.0500002"
   id="ellipse2398"
   style="fill:#e2cd71" />

			<ellipse
   class="st9"
   cx="90.339996"
   cy="295.75"
   rx="4.71"
   ry="6.0500002"
   id="ellipse2400"
   style="fill:#e2cd71" />

			<ellipse
   class="st9"
   cx="100.31"
   cy="295.75"
   rx="4.71"
   ry="6.0500002"
   id="ellipse2402"
   style="fill:#e2cd71" />

			<ellipse
   class="st9"
   cx="110.28"
   cy="295.75"
   rx="4.71"
   ry="6.0500002"
   id="ellipse2404"
   style="fill:#e2cd71" />

			<ellipse
   class="st9"
   cx="120.25"
   cy="295.75"
   rx="4.71"
   ry="6.0500002"
   id="ellipse2406"
   style="fill:#e2cd71" />

			<ellipse
   class="st9"
   cx="130.21001"
   cy="295.75"
   rx="4.71"
   ry="6.0500002"
   id="ellipse2408"
   style="fill:#e2cd71" />

			<ellipse
   class="st9"
   cx="140.17999"
   cy="295.75"
   rx="4.71"
   ry="6.0500002"
   id="ellipse2410"
   style="fill:#e2cd71" />

			<ellipse
   class="st9"
   cx="150.14999"
   cy="295.75"
   rx="4.71"
   ry="6.0500002"
   id="ellipse2412"
   style="fill:#e2cd71" />

			<ellipse
   class="st9"
   cx="160.12"
   cy="295.75"
   rx="4.71"
   ry="6.0500002"
   id="ellipse2414"
   style="fill:#e2cd71" />

			<ellipse
   class="st9"
   cx="170.09"
   cy="295.75"
   rx="4.71"
   ry="6.0500002"
   id="ellipse2416"
   style="fill:#e2cd71" />

			<ellipse
   class="st9"
   cx="180.06"
   cy="295.75"
   rx="4.71"
   ry="6.0500002"
   id="ellipse2418"
   style="fill:#e2cd71" />

			<ellipse
   class="st9"
   cx="190.03"
   cy="295.75"
   rx="4.71"
   ry="6.0500002"
   id="ellipse2420"
   style="fill:#e2cd71" />

			<ellipse
   class="st9"
   cx="200"
   cy="295.75"
   rx="4.71"
   ry="6.0500002"
   id="ellipse2422"
   style="fill:#e2cd71" />

			<ellipse
   class="st9"
   cx="209.97"
   cy="295.75"
   rx="4.71"
   ry="6.0500002"
   id="ellipse2424"
   style="fill:#e2cd71" />

			<ellipse
   class="st9"
   cx="219.94"
   cy="295.75"
   rx="4.71"
   ry="6.0500002"
   id="ellipse2426"
   style="fill:#e2cd71" />

			<ellipse
   class="st9"
   cx="229.91"
   cy="295.75"
   rx="4.71"
   ry="6.0500002"
   id="ellipse2428"
   style="fill:#e2cd71" />

			<ellipse
   class="st9"
   cx="239.88"
   cy="295.75"
   rx="4.71"
   ry="6.0500002"
   id="ellipse2430"
   style="fill:#e2cd71" />

			<ellipse
   class="st9"
   cx="249.85001"
   cy="295.75"
   rx="4.71"
   ry="6.0500002"
   id="ellipse2432"
   style="fill:#e2cd71" />

			<ellipse
   class="st9"
   cx="259.82001"
   cy="295.75"
   rx="4.71"
   ry="6.0500002"
   id="ellipse2434"
   style="fill:#e2cd71" />

			<ellipse
   class="st9"
   cx="269.79001"
   cy="295.75"
   rx="4.71"
   ry="6.0500002"
   id="ellipse2436"
   style="fill:#e2cd71" />

			<ellipse
   class="st9"
   cx="279.75"
   cy="295.75"
   rx="4.71"
   ry="6.0500002"
   id="ellipse2438"
   style="fill:#e2cd71" />

			<ellipse
   class="st9"
   cx="289.72"
   cy="295.75"
   rx="4.71"
   ry="6.0500002"
   id="ellipse2440"
   style="fill:#e2cd71" />

			<ellipse
   class="st9"
   cx="299.69"
   cy="295.75"
   rx="4.71"
   ry="6.0500002"
   id="ellipse2442"
   style="fill:#e2cd71" />

			<ellipse
   class="st9"
   cx="309.66"
   cy="295.75"
   rx="4.71"
   ry="6.0500002"
   id="ellipse2444"
   style="fill:#e2cd71" />

			<ellipse
   class="st9"
   cx="319.63"
   cy="295.75"
   rx="4.71"
   ry="6.0500002"
   id="ellipse2446"
   style="fill:#e2cd71" />

			<ellipse
   class="st9"
   cx="329.60001"
   cy="295.75"
   rx="4.71"
   ry="6.0500002"
   id="ellipse2448"
   style="fill:#e2cd71" />

		</g>
      </g>
      <g
         id="lipoteichoic-acid-1"
         inkscape:label="lipoteichoic-acid-1">
				<g
   id="g2454">
					<path
   class="st11"
   d="m 113.55,227.02 -0.09,4.59 c -0.01,1.78 -1.48,3.23 -3.26,3.23 -1.78,0 -3.23,-1.49 -3.22,-3.31 l 0.09,-4.7 c 0.06,-1.83 1.57,-3.26 3.36,-3.18 1.78,0.09 3.19,1.6 3.12,3.37 z"
   id="path2452"
   style="fill:#144d66" />

				</g>

				<g
   id="g2458">
					<path
   class="st11"
   d="m 114.28,214.74 c -0.13,1.52 -0.27,3.04 -0.36,4.56 -0.13,1.76 -1.64,3.13 -3.43,3.05 -1.78,-0.08 -3.18,-1.65 -3.04,-3.48 0.1,-1.57 0.23,-3.14 0.37,-4.7 0.16,-1.82 1.76,-3.14 3.54,-2.97 1.78,0.16 3.08,1.77 2.92,3.54 z"
   id="path2456"
   style="fill:#144d66" />

				</g>

				<g
   id="g2462">
					<path
   class="st11"
   d="m 115.4,202.22 c -0.1,1.57 -0.23,3.14 -0.37,4.7 -0.16,1.82 -1.76,3.14 -3.54,2.97 v 0 c -1.78,-0.17 -3.08,-1.78 -2.92,-3.55 0.13,-1.52 0.27,-3.04 0.36,-4.56 0.13,-1.76 1.64,-3.13 3.43,-3.05 1.77,0.09 3.17,1.65 3.04,3.49 z"
   id="path2460"
   style="fill:#144d66" />

				</g>

				<g
   id="g2466">
					<path
   class="st11"
   d="m 115.87,189.54 -0.09,4.7 c -0.06,1.83 -1.57,3.26 -3.36,3.18 -1.78,-0.08 -3.19,-1.6 -3.12,-3.36 l 0.09,-4.59 c 0.01,-1.78 1.48,-3.23 3.26,-3.23 1.79,-0.01 3.24,1.48 3.22,3.3 z"
   id="path2464"
   style="fill:#144d66" />

				</g>

				<g
   id="g2470">
					<path
   class="st11"
   d="m 115.78,176.91 0.09,4.7 c 0.01,1.82 -1.44,3.31 -3.22,3.31 -1.78,0 -3.25,-1.45 -3.26,-3.23 l -0.09,-4.59 c -0.06,-1.77 1.35,-3.28 3.12,-3.36 1.79,-0.09 3.3,1.34 3.36,3.17 z"
   id="path2468"
   style="fill:#144d66" />

				</g>

				<g
   id="g2474">
					<path
   class="st11"
   d="m 115.03,164.24 c 0.14,1.56 0.27,3.13 0.37,4.7 0.13,1.83 -1.27,3.4 -3.04,3.48 -1.79,0.08 -3.3,-1.29 -3.43,-3.05 -0.09,-1.52 -0.23,-3.03 -0.36,-4.56 -0.16,-1.76 1.14,-3.37 2.92,-3.55 1.77,-0.16 3.38,1.16 3.54,2.98 z"
   id="path2472"
   style="fill:#144d66" />

				</g>

				<g
   id="g2478">
					<path
   class="st11"
   d="m 113.92,151.86 c 0.09,1.52 0.23,3.03 0.36,4.56 0.16,1.76 -1.14,3.37 -2.92,3.55 -1.77,0.17 -3.38,-1.15 -3.54,-2.97 -0.14,-1.56 -0.27,-3.13 -0.37,-4.7 -0.13,-1.83 1.27,-3.4 3.04,-3.48 1.79,-0.09 3.31,1.28 3.43,3.04 z"
   id="path2476"
   style="fill:#144d66" />

				</g>

				<g
   id="g2482">
					<path
   class="st11"
   d="m 113.46,139.55 0.09,4.59 c 0.06,1.77 -1.35,3.28 -3.12,3.36 -1.78,0.08 -3.29,-1.35 -3.36,-3.18 l -0.09,-4.7 c -0.01,-1.82 1.44,-3.31 3.22,-3.31 1.78,0 3.25,1.46 3.26,3.24 z"
   id="path2480"
   style="fill:#144d66" />

				</g>

				<g
   id="g2486">
					<path
   class="st11"
   d="m 113.55,127.18 -0.09,4.59 c -0.01,1.78 -1.48,3.23 -3.26,3.23 -1.78,0 -3.23,-1.49 -3.22,-3.31 l 0.09,-4.7 c 0.06,-1.83 1.57,-3.26 3.36,-3.18 1.78,0.09 3.19,1.6 3.12,3.37 z"
   id="path2484"
   style="fill:#144d66" />

				</g>

				<g
   id="g2490">
					<path
   class="st11"
   d="m 114.28,114.9 c -0.13,1.52 -0.27,3.04 -0.36,4.56 -0.13,1.76 -1.64,3.13 -3.43,3.05 -1.78,-0.08 -3.18,-1.65 -3.04,-3.48 0.1,-1.57 0.23,-3.14 0.37,-4.7 0.16,-1.82 1.76,-3.14 3.54,-2.97 1.78,0.16 3.08,1.77 2.92,3.54 z"
   id="path2488"
   style="fill:#144d66" />

				</g>

				<g
   id="g2494">
					<path
   class="st11"
   d="m 115.4,102.37 c -0.1,1.57 -0.23,3.14 -0.37,4.7 -0.16,1.82 -1.76,3.14 -3.54,2.97 -1.78,-0.17 -3.08,-1.78 -2.92,-3.55 0.13,-1.52 0.27,-3.04 0.36,-4.56 0.13,-1.76 1.64,-3.13 3.43,-3.05 1.77,0.09 3.17,1.66 3.04,3.49 z"
   id="path2492"
   style="fill:#144d66" />

				</g>

				<g
   id="g2498">
					<path
   class="st11"
   d="m 115.87,89.7 -0.09,4.7 c -0.06,1.83 -1.57,3.26 -3.36,3.18 -1.78,-0.08 -3.19,-1.6 -3.12,-3.36 l 0.09,-4.59 c 0.01,-1.78 1.48,-3.23 3.26,-3.23 1.79,-0.01 3.24,1.48 3.22,3.3 z"
   id="path2496"
   style="fill:#144d66" />

				</g>

				<g
   id="g2502">
					<path
   class="st11"
   d="m 115.78,77.07 0.09,4.7 c 0.01,1.82 -1.44,3.31 -3.22,3.31 -1.78,0 -3.25,-1.45 -3.26,-3.23 l -0.09,-4.59 c -0.06,-1.77 1.35,-3.28 3.12,-3.36 1.79,-0.09 3.3,1.34 3.36,3.17 z"
   id="path2500"
   style="fill:#144d66" />

				</g>

				<g
   id="g2506">
					<path
   class="st11"
   d="m 115.03,64.39 c 0.14,1.56 0.27,3.13 0.37,4.7 0.13,1.83 -1.27,3.4 -3.04,3.48 -1.79,0.08 -3.3,-1.29 -3.43,-3.05 -0.09,-1.52 -0.23,-3.03 -0.36,-4.56 -0.16,-1.77 1.14,-3.37 2.92,-3.55 1.77,-0.15 3.38,1.17 3.54,2.98 z"
   id="path2504"
   style="fill:#144d66" />

				</g>

				<g
   id="g2510">
					<path
   class="st11"
   d="m 113.92,52.01 c 0.09,1.52 0.23,3.03 0.36,4.56 0.16,1.77 -1.14,3.37 -2.92,3.55 -1.77,0.17 -3.38,-1.15 -3.54,-2.97 -0.14,-1.56 -0.27,-3.13 -0.37,-4.7 -0.13,-1.83 1.27,-3.4 3.04,-3.48 1.79,-0.09 3.31,1.29 3.43,3.04 z"
   id="path2508"
   style="fill:#144d66" />

				</g>

				<g
   id="g2514">
					<path
   class="st11"
   d="m 113.46,39.7 0.09,4.59 c 0.06,1.77 -1.35,3.28 -3.12,3.36 -1.78,0.08 -3.29,-1.35 -3.36,-3.18 l -0.09,-4.7 c -0.01,-1.82 1.44,-3.31 3.22,-3.31 1.79,0.01 3.25,1.47 3.26,3.24 z"
   id="path2512"
   style="fill:#144d66" />

				</g>

			</g>
      <g
         id="lipoteichoic-acid-2"
         inkscape:label="lipoteichoic-acid-2">
				<g
   id="g2520">
					<path
   class="st11"
   d="m 146.87,227.02 0.09,4.59 c 0.01,1.78 1.48,3.23 3.26,3.23 1.78,0 3.23,-1.49 3.22,-3.31 l -0.09,-4.7 c -0.06,-1.83 -1.57,-3.26 -3.36,-3.18 -1.77,0.09 -3.18,1.6 -3.12,3.37 z"
   id="path2518"
   style="fill:#144d66" />

				</g>

				<g
   id="g2524">
					<path
   class="st11"
   d="m 146.15,214.74 c 0.13,1.52 0.27,3.04 0.36,4.56 0.13,1.76 1.64,3.13 3.43,3.05 1.78,-0.08 3.18,-1.65 3.04,-3.48 -0.1,-1.57 -0.23,-3.14 -0.37,-4.7 -0.16,-1.82 -1.76,-3.14 -3.54,-2.97 -1.78,0.16 -3.08,1.77 -2.92,3.54 z"
   id="path2522"
   style="fill:#144d66" />

				</g>

				<g
   id="g2528">
					<path
   class="st11"
   d="m 145.03,202.22 c 0.1,1.57 0.23,3.14 0.37,4.7 0.16,1.82 1.76,3.14 3.54,2.97 v 0 c 1.78,-0.17 3.08,-1.78 2.92,-3.55 -0.13,-1.52 -0.27,-3.04 -0.36,-4.56 -0.13,-1.76 -1.64,-3.13 -3.43,-3.05 -1.77,0.09 -3.17,1.65 -3.04,3.49 z"
   id="path2526"
   style="fill:#144d66" />

				</g>

				<g
   id="g2532">
					<path
   class="st11"
   d="m 144.56,189.54 0.09,4.7 c 0.06,1.83 1.57,3.26 3.36,3.18 1.78,-0.08 3.19,-1.6 3.12,-3.36 l -0.09,-4.59 c -0.01,-1.78 -1.48,-3.23 -3.26,-3.23 -1.79,-0.01 -3.24,1.48 -3.22,3.3 z"
   id="path2530"
   style="fill:#144d66" />

				</g>

				<g
   id="g2536">
					<path
   class="st11"
   d="m 144.65,176.91 -0.09,4.7 c -0.01,1.82 1.44,3.31 3.22,3.31 1.78,0 3.25,-1.45 3.26,-3.23 l 0.09,-4.59 c 0.06,-1.77 -1.35,-3.28 -3.12,-3.36 -1.79,-0.09 -3.3,1.34 -3.36,3.17 z"
   id="path2534"
   style="fill:#144d66" />

				</g>

				<g
   id="g2540">
					<path
   class="st11"
   d="m 145.4,164.24 c -0.14,1.56 -0.27,3.13 -0.37,4.7 -0.13,1.83 1.27,3.4 3.04,3.48 1.79,0.08 3.3,-1.29 3.43,-3.05 0.09,-1.52 0.23,-3.03 0.36,-4.56 0.16,-1.76 -1.14,-3.37 -2.92,-3.55 -1.77,-0.16 -3.38,1.16 -3.54,2.98 z"
   id="path2538"
   style="fill:#144d66" />

				</g>

				<g
   id="g2544">
					<path
   class="st11"
   d="m 146.51,151.86 c -0.09,1.52 -0.23,3.03 -0.36,4.56 -0.16,1.76 1.14,3.37 2.92,3.55 1.77,0.17 3.38,-1.15 3.54,-2.97 0.14,-1.56 0.27,-3.13 0.37,-4.7 0.13,-1.83 -1.27,-3.4 -3.04,-3.48 -1.79,-0.09 -3.31,1.28 -3.43,3.04 z"
   id="path2542"
   style="fill:#144d66" />

				</g>

				<g
   id="g2548">
					<path
   class="st11"
   d="m 146.96,139.55 -0.09,4.59 c -0.06,1.77 1.35,3.28 3.12,3.36 1.78,0.08 3.29,-1.35 3.36,-3.18 l 0.09,-4.7 c 0.01,-1.82 -1.44,-3.31 -3.22,-3.31 -1.78,0 -3.24,1.46 -3.26,3.24 z"
   id="path2546"
   style="fill:#144d66" />

				</g>

				<g
   id="g2552">
					<path
   class="st11"
   d="m 146.87,127.18 0.09,4.59 c 0.01,1.78 1.48,3.23 3.26,3.23 1.78,0 3.23,-1.49 3.22,-3.31 l -0.09,-4.7 c -0.06,-1.83 -1.57,-3.26 -3.36,-3.18 -1.77,0.09 -3.18,1.6 -3.12,3.37 z"
   id="path2550"
   style="fill:#144d66" />

				</g>

				<g
   id="g2556">
					<path
   class="st11"
   d="m 146.14,114.9 c 0.13,1.52 0.27,3.04 0.36,4.56 0.13,1.76 1.64,3.13 3.43,3.05 1.78,-0.08 3.18,-1.65 3.04,-3.48 -0.1,-1.57 -0.23,-3.14 -0.37,-4.7 -0.16,-1.82 -1.76,-3.14 -3.54,-2.97 -1.77,0.16 -3.07,1.77 -2.92,3.54 z"
   id="path2554"
   style="fill:#144d66" />

				</g>

				<g
   id="g2560">
					<path
   class="st11"
   d="m 145.03,102.37 c 0.1,1.57 0.23,3.14 0.37,4.7 0.16,1.82 1.76,3.14 3.54,2.97 1.78,-0.17 3.08,-1.78 2.92,-3.55 -0.13,-1.52 -0.27,-3.04 -0.36,-4.56 -0.13,-1.76 -1.64,-3.13 -3.43,-3.05 -1.77,0.09 -3.17,1.66 -3.04,3.49 z"
   id="path2558"
   style="fill:#144d66" />

				</g>

				<g
   id="g2564">
					<path
   class="st11"
   d="m 144.56,89.7 0.09,4.7 c 0.06,1.83 1.57,3.26 3.36,3.18 1.78,-0.08 3.19,-1.6 3.12,-3.36 l -0.09,-4.59 c -0.01,-1.78 -1.48,-3.23 -3.26,-3.23 -1.79,-0.01 -3.24,1.48 -3.22,3.3 z"
   id="path2562"
   style="fill:#144d66" />

				</g>

				<g
   id="g2568">
					<path
   class="st11"
   d="m 144.65,77.07 -0.09,4.7 c -0.01,1.82 1.44,3.31 3.22,3.31 1.78,0 3.25,-1.45 3.26,-3.23 l 0.09,-4.59 c 0.06,-1.77 -1.35,-3.28 -3.12,-3.36 -1.79,-0.09 -3.3,1.34 -3.36,3.17 z"
   id="path2566"
   style="fill:#144d66" />

				</g>

				<g
   id="g2572">
					<path
   class="st11"
   d="m 145.4,64.39 c -0.14,1.56 -0.27,3.13 -0.37,4.7 -0.13,1.83 1.27,3.4 3.04,3.48 1.79,0.08 3.3,-1.29 3.43,-3.05 0.09,-1.52 0.23,-3.03 0.36,-4.56 0.16,-1.77 -1.14,-3.37 -2.92,-3.55 -1.77,-0.15 -3.38,1.17 -3.54,2.98 z"
   id="path2570"
   style="fill:#144d66" />

				</g>

				<g
   id="g2576">
					<path
   class="st11"
   d="m 146.51,52.01 c -0.09,1.52 -0.23,3.03 -0.36,4.56 -0.16,1.77 1.14,3.37 2.92,3.55 1.77,0.17 3.38,-1.15 3.54,-2.97 0.14,-1.56 0.27,-3.13 0.37,-4.7 0.13,-1.83 -1.27,-3.4 -3.04,-3.48 -1.79,-0.09 -3.31,1.29 -3.43,3.04 z"
   id="path2574"
   style="fill:#144d66" />

				</g>

				<g
   id="g2580">
					<path
   class="st11"
   d="m 146.96,39.7 -0.09,4.59 c -0.06,1.77 1.35,3.28 3.12,3.36 1.78,0.08 3.29,-1.35 3.36,-3.18 l 0.09,-4.7 c 0.01,-1.82 -1.44,-3.31 -3.22,-3.31 -1.78,0.01 -3.24,1.47 -3.26,3.24 z"
   id="path2578"
   style="fill:#144d66" />

				</g>

			</g>
      <g
         id="lipoteichoic-acid-3"
         inkscape:label="lipoteichoic-acid-3">
				<g
   id="g2586">
					<path
   class="st11"
   d="m 283.03,227.02 -0.09,4.59 c -0.01,1.78 -1.48,3.23 -3.26,3.23 -1.78,0 -3.23,-1.49 -3.22,-3.31 l 0.09,-4.7 c 0.06,-1.83 1.57,-3.26 3.36,-3.18 1.78,0.09 3.19,1.6 3.12,3.37 z"
   id="path2584"
   style="fill:#144d66" />

				</g>

				<g
   id="g2590">
					<path
   class="st11"
   d="m 283.76,214.74 c -0.13,1.52 -0.27,3.04 -0.36,4.56 -0.13,1.76 -1.64,3.13 -3.43,3.05 -1.78,-0.08 -3.18,-1.65 -3.04,-3.48 0.1,-1.57 0.23,-3.14 0.37,-4.7 0.16,-1.82 1.76,-3.14 3.54,-2.97 1.78,0.16 3.08,1.77 2.92,3.54 z"
   id="path2588"
   style="fill:#144d66" />

				</g>

				<g
   id="g2594">
					<path
   class="st11"
   d="m 284.88,202.22 c -0.1,1.57 -0.23,3.14 -0.37,4.7 -0.16,1.82 -1.76,3.14 -3.54,2.97 v 0 c -1.78,-0.17 -3.08,-1.78 -2.92,-3.55 0.13,-1.52 0.27,-3.04 0.36,-4.56 0.13,-1.76 1.64,-3.13 3.43,-3.05 1.77,0.09 3.17,1.65 3.04,3.49 z"
   id="path2592"
   style="fill:#144d66" />

				</g>

				<g
   id="g2598">
					<path
   class="st11"
   d="m 285.35,189.54 -0.09,4.7 c -0.06,1.83 -1.57,3.26 -3.36,3.18 -1.78,-0.08 -3.19,-1.6 -3.12,-3.36 l 0.09,-4.59 c 0.01,-1.78 1.48,-3.23 3.26,-3.23 1.78,-0.01 3.23,1.48 3.22,3.3 z"
   id="path2596"
   style="fill:#144d66" />

				</g>

				<g
   id="g2602">
					<path
   class="st11"
   d="m 285.26,176.91 0.09,4.7 c 0.01,1.82 -1.44,3.31 -3.22,3.31 -1.78,0 -3.25,-1.45 -3.26,-3.23 l -0.09,-4.59 c -0.06,-1.77 1.35,-3.28 3.12,-3.36 1.79,-0.09 3.3,1.34 3.36,3.17 z"
   id="path2600"
   style="fill:#144d66" />

				</g>

				<g
   id="g2606">
					<path
   class="st11"
   d="m 284.51,164.24 c 0.14,1.56 0.27,3.13 0.37,4.7 0.13,1.83 -1.27,3.4 -3.04,3.48 -1.79,0.08 -3.3,-1.29 -3.43,-3.05 -0.09,-1.52 -0.23,-3.03 -0.36,-4.56 -0.16,-1.76 1.14,-3.37 2.92,-3.55 1.77,-0.16 3.37,1.16 3.54,2.98 z"
   id="path2604"
   style="fill:#144d66" />

				</g>

				<g
   id="g2610">
					<path
   class="st11"
   d="m 283.4,151.86 c 0.09,1.52 0.23,3.03 0.36,4.56 0.16,1.76 -1.14,3.37 -2.92,3.55 -1.77,0.17 -3.38,-1.15 -3.54,-2.97 -0.14,-1.56 -0.27,-3.13 -0.37,-4.7 -0.13,-1.83 1.27,-3.4 3.04,-3.48 1.79,-0.09 3.3,1.28 3.43,3.04 z"
   id="path2608"
   style="fill:#144d66" />

				</g>

				<g
   id="g2614">
					<path
   class="st11"
   d="m 282.94,139.55 0.09,4.59 c 0.06,1.77 -1.35,3.28 -3.12,3.36 -1.78,0.08 -3.29,-1.35 -3.36,-3.18 l -0.09,-4.7 c -0.01,-1.82 1.44,-3.31 3.22,-3.31 1.78,0 3.25,1.46 3.26,3.24 z"
   id="path2612"
   style="fill:#144d66" />

				</g>

				<g
   id="g2618">
					<path
   class="st11"
   d="m 283.03,127.18 -0.09,4.59 c -0.01,1.78 -1.48,3.23 -3.26,3.23 -1.78,0 -3.23,-1.49 -3.22,-3.31 l 0.09,-4.7 c 0.06,-1.83 1.57,-3.26 3.36,-3.18 1.78,0.09 3.19,1.6 3.12,3.37 z"
   id="path2616"
   style="fill:#144d66" />

				</g>

				<g
   id="g2622">
					<path
   class="st11"
   d="m 283.76,114.9 c -0.13,1.52 -0.27,3.04 -0.36,4.56 -0.13,1.76 -1.64,3.13 -3.43,3.05 -1.78,-0.08 -3.18,-1.65 -3.04,-3.48 0.1,-1.57 0.23,-3.14 0.37,-4.7 0.16,-1.82 1.76,-3.14 3.54,-2.97 1.78,0.16 3.08,1.77 2.92,3.54 z"
   id="path2620"
   style="fill:#144d66" />

				</g>

				<g
   id="g2626">
					<path
   class="st11"
   d="m 284.88,102.37 c -0.1,1.57 -0.23,3.14 -0.37,4.7 -0.16,1.82 -1.76,3.14 -3.54,2.97 -1.78,-0.17 -3.08,-1.78 -2.92,-3.55 0.13,-1.52 0.27,-3.04 0.36,-4.56 0.13,-1.76 1.64,-3.13 3.43,-3.05 1.77,0.09 3.17,1.66 3.04,3.49 z"
   id="path2624"
   style="fill:#144d66" />

				</g>

				<g
   id="g2630">
					<path
   class="st11"
   d="m 285.35,89.7 -0.09,4.7 c -0.06,1.83 -1.57,3.26 -3.36,3.18 -1.78,-0.08 -3.19,-1.6 -3.12,-3.36 l 0.09,-4.59 c 0.01,-1.78 1.48,-3.23 3.26,-3.23 1.78,-0.01 3.23,1.48 3.22,3.3 z"
   id="path2628"
   style="fill:#144d66" />

				</g>

				<g
   id="g2634">
					<path
   class="st11"
   d="m 285.26,77.07 0.09,4.7 c 0.01,1.82 -1.44,3.31 -3.22,3.31 -1.78,0 -3.25,-1.45 -3.26,-3.23 l -0.09,-4.59 c -0.06,-1.77 1.35,-3.28 3.12,-3.36 1.79,-0.09 3.3,1.34 3.36,3.17 z"
   id="path2632"
   style="fill:#144d66" />

				</g>

				<g
   id="g2638">
					<path
   class="st11"
   d="m 284.51,64.39 c 0.14,1.56 0.27,3.13 0.37,4.7 0.13,1.83 -1.27,3.4 -3.04,3.48 -1.79,0.08 -3.3,-1.29 -3.43,-3.05 -0.09,-1.52 -0.23,-3.03 -0.36,-4.56 -0.16,-1.77 1.14,-3.37 2.92,-3.55 1.77,-0.15 3.37,1.17 3.54,2.98 z"
   id="path2636"
   style="fill:#144d66" />

				</g>

				<g
   id="g2642">
					<path
   class="st11"
   d="m 283.4,52.01 c 0.09,1.52 0.23,3.03 0.36,4.56 0.16,1.77 -1.14,3.37 -2.92,3.55 -1.77,0.17 -3.38,-1.15 -3.54,-2.97 -0.14,-1.56 -0.27,-3.13 -0.37,-4.7 -0.13,-1.83 1.27,-3.4 3.04,-3.48 1.79,-0.09 3.3,1.29 3.43,3.04 z"
   id="path2640"
   style="fill:#144d66" />

				</g>

				<g
   id="g2646">
					<path
   class="st11"
   d="m 282.94,39.7 0.09,4.59 c 0.06,1.77 -1.35,3.28 -3.12,3.36 -1.78,0.08 -3.29,-1.35 -3.36,-3.18 l -0.09,-4.7 c -0.01,-1.82 1.44,-3.31 3.22,-3.31 1.78,0.01 3.25,1.47 3.26,3.24 z"
   id="path2644"
   style="fill:#144d66" />

				</g>

			</g>
      <g
         id="teichoic-acid-3"
         inkscape:label="teichoic-acid-3">
				<g
   id="g2652">
					<path
   class="st12"
   d="m 230.44,44.48 c 0.15,-1.42 0.26,-2.85 0.32,-4.3 0.08,-1.67 1.52,-3.07 3.31,-3.06 1.77,0 3.25,1.49 3.17,3.33 -0.06,1.57 -0.18,3.17 -0.35,4.76 -0.21,1.87 -1.91,3.11 -3.67,2.81 -1.77,-0.31 -2.96,-1.91 -2.78,-3.54 z"
   id="path2650"
   style="fill:#7da1b5" />

				</g>

				<g
   id="g2656">
					<path
   class="st12"
   d="m 228.65,56.67 c 0.13,-1.59 0.35,-3.19 0.59,-4.75 0.3,-1.82 2,-2.93 3.75,-2.63 1.76,0.3 2.92,2.02 2.65,3.67 -0.23,1.43 -0.42,2.84 -0.53,4.27 -0.14,1.65 -1.65,2.97 -3.43,2.91 -1.78,-0.06 -3.18,-1.61 -3.03,-3.47 z"
   id="path2654"
   style="fill:#7da1b5" />

				</g>

				<g
   id="g2660">
					<path
   class="st12"
   d="m 228.54,69.37 c -0.1,-1.58 -0.14,-3.16 -0.15,-4.72 -0.02,-1.83 1.49,-3.28 3.26,-3.23 1.79,0.05 3.21,1.48 3.22,3.18 0.01,1.47 0.05,2.93 0.14,4.36 0.09,1.66 -1.19,3.17 -2.96,3.39 -1.77,0.23 -3.41,-1.12 -3.51,-2.98 z"
   id="path2658"
   style="fill:#7da1b5" />

				</g>

				<g
   id="g2664">
					<path
   class="st12"
   d="m 230.25,81.73 c -0.19,-1.41 -0.46,-2.85 -0.73,-4.37 -0.32,-1.78 0.92,-3.5 2.68,-3.72 1.77,-0.22 3.4,0.91 3.7,2.6 0.26,1.47 0.55,3.01 0.77,4.6 0.26,1.86 -1.08,3.5 -2.86,3.63 -1.78,0.12 -3.33,-1.11 -3.56,-2.74 z"
   id="path2662"
   style="fill:#7da1b5" />

				</g>

				<g
   id="g2668">
					<path
   class="st12"
   d="m 230.81,93.41 c 0.03,-1.47 0.03,-2.93 0,-4.4 -0.04,-1.68 1.33,-3.14 3.1,-3.27 1.79,-0.13 3.33,1.29 3.38,3.12 0.03,1.56 0.03,3.13 0,4.69 -0.05,1.84 -1.59,3.25 -3.38,3.12 -1.77,-0.11 -3.15,-1.58 -3.1,-3.26 z"
   id="path2666"
   style="fill:#7da1b5" />

				</g>

				<g
   id="g2672">
					<path
   class="st12"
   d="m 229.52,105.07 c 0.27,-1.52 0.54,-2.95 0.73,-4.37 0.23,-1.63 1.78,-2.86 3.57,-2.73 1.77,0.13 3.12,1.77 2.86,3.63 -0.22,1.59 -0.51,3.13 -0.77,4.59 -0.3,1.69 -1.93,2.82 -3.7,2.6 -1.77,-0.22 -3.01,-1.95 -2.69,-3.72 z"
   id="path2670"
   style="fill:#7da1b5" />

				</g>

				<g
   id="g2676">
					<path
   class="st12"
   d="m 228.38,117.77 c 0.01,-1.56 0.05,-3.13 0.15,-4.72 0.11,-1.86 1.74,-3.21 3.51,-2.99 1.77,0.22 3.05,1.73 2.96,3.39 -0.09,1.44 -0.13,2.9 -0.14,4.36 -0.02,1.69 -1.43,3.12 -3.22,3.18 -1.77,0.06 -3.27,-1.39 -3.26,-3.22 z"
   id="path2674"
   style="fill:#7da1b5" />

				</g>

				<g
   id="g2680">
					<path
   class="st12"
   d="m 229.25,130.51 c -0.25,-1.56 -0.47,-3.16 -0.59,-4.75 -0.16,-1.86 1.25,-3.42 3.04,-3.47 1.78,-0.06 3.28,1.27 3.43,2.91 0.11,1.43 0.31,2.83 0.53,4.27 0.27,1.65 -0.89,3.37 -2.65,3.67 -1.76,0.3 -3.46,-0.81 -3.76,-2.63 z"
   id="path2678"
   style="fill:#7da1b5" />

				</g>

				<g
   id="g2684">
					<path
   class="st12"
   d="m 230.75,142.25 c -0.05,-1.45 -0.16,-2.88 -0.32,-4.3 -0.18,-1.63 1.02,-3.23 2.78,-3.53 1.75,-0.3 3.46,0.94 3.67,2.81 0.17,1.59 0.29,3.18 0.35,4.76 0.08,1.85 -1.39,3.33 -3.17,3.33 -1.79,0 -3.23,-1.4 -3.31,-3.07 z"
   id="path2682"
   style="fill:#7da1b5" />

				</g>

			</g>
      <g
         id="teichoic-acid-1"
         inkscape:label="teichoic-acid-1">
				<g
   id="g2690">
					<path
   class="st12"
   d="m 78.35,44.48 c 0.15,-1.42 0.26,-2.85 0.32,-4.3 0.08,-1.67 1.52,-3.07 3.31,-3.06 1.77,0 3.25,1.49 3.17,3.33 -0.06,1.57 -0.18,3.17 -0.35,4.76 -0.21,1.87 -1.91,3.11 -3.67,2.81 -1.77,-0.31 -2.96,-1.91 -2.78,-3.54 z"
   id="path2688"
   style="fill:#7da1b5" />

				</g>

				<g
   id="g2694">
					<path
   class="st12"
   d="m 76.56,56.67 c 0.13,-1.59 0.35,-3.19 0.59,-4.75 0.3,-1.82 2,-2.93 3.75,-2.63 1.76,0.3 2.92,2.02 2.65,3.67 -0.23,1.43 -0.42,2.84 -0.53,4.27 -0.14,1.65 -1.65,2.97 -3.43,2.91 -1.78,-0.06 -3.19,-1.61 -3.03,-3.47 z"
   id="path2692"
   style="fill:#7da1b5" />

				</g>

				<g
   id="g2698">
					<path
   class="st12"
   d="m 76.44,69.37 c -0.1,-1.58 -0.14,-3.16 -0.15,-4.72 -0.02,-1.83 1.49,-3.28 3.26,-3.23 1.79,0.05 3.21,1.48 3.22,3.18 0.01,1.47 0.05,2.93 0.14,4.36 0.09,1.66 -1.19,3.17 -2.96,3.39 -1.76,0.23 -3.4,-1.12 -3.51,-2.98 z"
   id="path2696"
   style="fill:#7da1b5" />

				</g>

				<g
   id="g2702">
					<path
   class="st12"
   d="m 78.16,81.73 c -0.19,-1.41 -0.46,-2.85 -0.73,-4.37 -0.32,-1.78 0.92,-3.5 2.68,-3.72 1.77,-0.22 3.4,0.91 3.7,2.6 0.26,1.47 0.55,3.01 0.77,4.6 0.26,1.86 -1.08,3.5 -2.86,3.63 -1.78,0.12 -3.33,-1.11 -3.56,-2.74 z"
   id="path2700"
   style="fill:#7da1b5" />

				</g>

				<g
   id="g2706">
					<path
   class="st12"
   d="m 78.72,93.41 c 0.03,-1.47 0.03,-2.93 0,-4.4 -0.04,-1.68 1.33,-3.14 3.1,-3.27 1.79,-0.13 3.33,1.29 3.38,3.12 0.03,1.56 0.03,3.13 0,4.69 -0.05,1.84 -1.59,3.25 -3.38,3.12 -1.77,-0.11 -3.15,-1.58 -3.1,-3.26 z"
   id="path2704"
   style="fill:#7da1b5" />

				</g>

				<g
   id="g2710">
					<path
   class="st12"
   d="m 77.43,105.07 c 0.27,-1.52 0.54,-2.95 0.73,-4.37 0.23,-1.63 1.78,-2.86 3.57,-2.73 1.77,0.13 3.12,1.77 2.86,3.63 -0.22,1.59 -0.51,3.13 -0.77,4.59 -0.3,1.69 -1.93,2.82 -3.7,2.6 -1.77,-0.22 -3.01,-1.95 -2.69,-3.72 z"
   id="path2708"
   style="fill:#7da1b5" />

				</g>

				<g
   id="g2714">
					<path
   class="st12"
   d="m 76.29,117.77 c 0.01,-1.56 0.05,-3.13 0.15,-4.72 0.11,-1.86 1.74,-3.21 3.51,-2.99 1.77,0.22 3.05,1.73 2.96,3.39 -0.09,1.44 -0.13,2.9 -0.14,4.36 -0.02,1.69 -1.43,3.12 -3.22,3.18 -1.77,0.06 -3.27,-1.39 -3.26,-3.22 z"
   id="path2712"
   style="fill:#7da1b5" />

				</g>

				<g
   id="g2718">
					<path
   class="st12"
   d="m 77.16,130.51 c -0.25,-1.56 -0.47,-3.16 -0.59,-4.75 -0.16,-1.86 1.25,-3.42 3.04,-3.47 1.78,-0.06 3.28,1.27 3.43,2.91 0.11,1.43 0.31,2.83 0.53,4.27 0.27,1.65 -0.89,3.37 -2.65,3.67 -1.76,0.3 -3.46,-0.81 -3.76,-2.63 z"
   id="path2716"
   style="fill:#7da1b5" />

				</g>

				<g
   id="g2722">
					<path
   class="st12"
   d="m 78.66,142.25 c -0.05,-1.45 -0.16,-2.88 -0.32,-4.3 -0.18,-1.63 1.02,-3.23 2.78,-3.53 1.75,-0.3 3.46,0.94 3.67,2.81 0.17,1.59 0.29,3.18 0.35,4.76 0.08,1.85 -1.39,3.33 -3.17,3.33 -1.79,0 -3.23,-1.4 -3.31,-3.07 z"
   id="path2720"
   style="fill:#7da1b5" />

				</g>

			</g>
      <g
         id="teichoic-acid-4"
         inkscape:label="teichoic-acid-4">
				<g
   id="g2728">
					<path
   class="st12"
   d="m 252.96,45 c 0.27,-1.37 0.46,-2.72 0.55,-4.13 0.11,-1.61 1.57,-2.98 3.36,-2.98 1.78,0 3.25,1.53 3.11,3.45 -0.1,1.63 -0.34,3.3 -0.65,4.91 -0.38,1.89 -2.14,2.88 -3.87,2.51 -1.76,-0.37 -2.81,-2.19 -2.5,-3.76 z"
   id="path2726"
   style="fill:#7da1b5" />

				</g>

				<g
   id="g2732">
					<path
   class="st12"
   d="m 251.19,57.72 c 0,-1.59 0.1,-3.23 0.27,-4.87 0.21,-1.95 1.98,-3.2 3.72,-2.82 v 0 c 1.75,0.38 2.89,1.96 2.73,3.53 -0.14,1.38 -0.23,2.79 -0.24,4.24 -0.02,1.66 -1.42,3.08 -3.2,3.17 -1.78,0.1 -3.31,-1.37 -3.28,-3.25 z"
   id="path2730"
   style="fill:#7da1b5" />

				</g>

				<g
   id="g2736">
					<path
   class="st12"
   d="m 252.65,70.65 c -0.33,-1.43 -0.71,-3.04 -0.96,-4.68 -0.3,-1.94 1.08,-3.6 2.85,-3.69 1.79,-0.1 3.31,1.14 3.56,2.7 0.21,1.36 0.53,2.72 0.88,4.26 0.43,1.81 -0.78,3.65 -2.55,3.87 -1.78,0.21 -3.39,-0.82 -3.78,-2.46 z"
   id="path2734"
   style="fill:#7da1b5" />

				</g>

				<g
   id="g2740">
					<path
   class="st12"
   d="m 253.59,82.03 c 0.05,-1.43 0.05,-2.88 0,-4.31 -0.05,-1.64 1.23,-3.1 3,-3.33 1.77,-0.24 3.42,1.18 3.48,3.08 0.06,1.61 0.06,3.2 0,4.82 -0.06,1.9 -1.71,3.32 -3.48,3.08 -1.77,-0.24 -3.05,-1.7 -3,-3.34 z"
   id="path2738"
   style="fill:#7da1b5" />

				</g>

				<g
   id="g2744">
					<path
   class="st12"
   d="m 251.69,93.77 c 0.25,-1.65 0.63,-3.25 0.96,-4.68 0.39,-1.64 2,-2.67 3.77,-2.44 1.77,0.22 2.98,2.06 2.55,3.87 -0.35,1.53 -0.67,2.89 -0.88,4.26 -0.24,1.56 -1.77,2.8 -3.56,2.7 -1.76,-0.11 -3.14,-1.76 -2.84,-3.71 z"
   id="path2742"
   style="fill:#7da1b5" />

				</g>

				<g
   id="g2748">
					<path
   class="st12"
   d="m 251.46,106.89 c -0.17,-1.64 -0.27,-3.28 -0.27,-4.87 -0.03,-1.88 1.5,-3.35 3.28,-3.26 1.78,0.09 3.18,1.51 3.2,3.17 0,1.45 0.09,2.86 0.24,4.24 0.16,1.57 -0.98,3.15 -2.73,3.53 -1.74,0.39 -3.51,-0.86 -3.72,-2.81 z"
   id="path2746"
   style="fill:#7da1b5" />

				</g>

				<g
   id="g2752">
					<path
   class="st12"
   d="m 253.51,118.88 c -0.09,-1.41 -0.28,-2.76 -0.55,-4.13 -0.32,-1.57 0.74,-3.39 2.49,-3.77 1.73,-0.37 3.49,0.62 3.87,2.51 0.32,1.61 0.55,3.29 0.65,4.91 0.13,1.92 -1.33,3.44 -3.11,3.45 -1.78,0.01 -3.24,-1.36 -3.35,-2.97 z"
   id="path2750"
   style="fill:#7da1b5" />

				</g>

			</g>
      <g
         id="teichoic-acid-2"
         inkscape:label="teichoic-acid-2">
				<g
   id="g2758">
					<path
   class="st12"
   d="m 191.46,44.61 c 0.27,-1.37 0.46,-2.72 0.55,-4.13 0.11,-1.61 1.57,-2.98 3.36,-2.98 1.78,0 3.25,1.53 3.11,3.45 -0.1,1.63 -0.34,3.3 -0.65,4.91 -0.38,1.89 -2.14,2.88 -3.87,2.51 -1.77,-0.37 -2.82,-2.19 -2.5,-3.76 z"
   id="path2756"
   style="fill:#7da1b5" />

				</g>

				<g
   id="g2762">
					<path
   class="st12"
   d="m 189.68,57.33 c 0,-1.59 0.1,-3.23 0.27,-4.87 0.21,-1.95 1.98,-3.2 3.72,-2.82 v 0 c 1.75,0.38 2.89,1.96 2.73,3.53 -0.14,1.38 -0.23,2.79 -0.24,4.24 -0.02,1.66 -1.42,3.08 -3.2,3.17 -1.78,0.1 -3.3,-1.37 -3.28,-3.25 z"
   id="path2760"
   style="fill:#7da1b5" />

				</g>

				<g
   id="g2766">
					<path
   class="st12"
   d="m 191.15,70.27 c -0.33,-1.43 -0.71,-3.04 -0.96,-4.68 -0.3,-1.94 1.08,-3.6 2.85,-3.69 1.79,-0.1 3.31,1.14 3.56,2.7 0.21,1.36 0.53,2.72 0.88,4.26 0.43,1.81 -0.78,3.65 -2.55,3.87 -1.78,0.2 -3.4,-0.83 -3.78,-2.46 z"
   id="path2764"
   style="fill:#7da1b5" />

				</g>

				<g
   id="g2770">
					<path
   class="st12"
   d="m 192.08,81.64 c 0.05,-1.43 0.05,-2.88 0,-4.31 -0.05,-1.64 1.23,-3.1 3,-3.33 1.77,-0.24 3.42,1.18 3.48,3.08 0.06,1.61 0.06,3.2 0,4.82 -0.06,1.9 -1.71,3.32 -3.48,3.08 -1.76,-0.24 -3.04,-1.7 -3,-3.34 z"
   id="path2768"
   style="fill:#7da1b5" />

				</g>

				<g
   id="g2774">
					<path
   class="st12"
   d="m 190.18,93.38 c 0.25,-1.65 0.63,-3.25 0.96,-4.68 0.39,-1.64 2,-2.67 3.77,-2.44 1.77,0.22 2.98,2.06 2.55,3.87 -0.35,1.53 -0.67,2.89 -0.88,4.26 -0.24,1.56 -1.77,2.8 -3.56,2.7 -1.76,-0.11 -3.14,-1.76 -2.84,-3.71 z"
   id="path2772"
   style="fill:#7da1b5" />

				</g>

				<g
   id="g2778">
					<path
   class="st12"
   d="m 189.96,106.5 c -0.17,-1.64 -0.27,-3.28 -0.27,-4.87 -0.03,-1.88 1.5,-3.35 3.28,-3.26 1.78,0.09 3.18,1.51 3.2,3.17 0,1.45 0.09,2.86 0.24,4.24 0.16,1.57 -0.98,3.15 -2.73,3.53 -1.74,0.39 -3.51,-0.86 -3.72,-2.81 z"
   id="path2776"
   style="fill:#7da1b5" />

				</g>

				<g
   id="g2782">
					<path
   class="st12"
   d="m 192.01,118.49 c -0.09,-1.41 -0.28,-2.76 -0.55,-4.13 -0.32,-1.57 0.74,-3.39 2.49,-3.77 1.73,-0.37 3.49,0.62 3.87,2.51 0.32,1.61 0.55,3.29 0.65,4.91 0.13,1.92 -1.33,3.44 -3.11,3.45 -1.78,0.01 -3.24,-1.36 -3.35,-2.97 z"
   id="path2780"
   style="fill:#7da1b5" />

				</g>

			</g>
      <g
         id="teichoic-acid-5"
         inkscape:label="teichoic-acid-5">
				<g
   id="g2788">
					<path
   class="st12"
   d="m 310.09,44.61 c 0.27,-1.37 0.46,-2.72 0.55,-4.13 0.11,-1.61 1.57,-2.98 3.36,-2.98 1.78,0 3.25,1.53 3.11,3.45 -0.1,1.63 -0.34,3.3 -0.65,4.91 -0.38,1.89 -2.14,2.88 -3.87,2.51 -1.77,-0.37 -2.82,-2.19 -2.5,-3.76 z"
   id="path2786"
   style="fill:#7da1b5" />

				</g>

				<g
   id="g2792">
					<path
   class="st12"
   d="m 308.32,57.33 c 0,-1.59 0.1,-3.23 0.27,-4.87 0.21,-1.95 1.98,-3.2 3.72,-2.82 v 0 c 1.75,0.38 2.89,1.96 2.73,3.53 -0.14,1.38 -0.23,2.79 -0.24,4.24 -0.02,1.66 -1.42,3.08 -3.2,3.17 -1.79,0.1 -3.31,-1.37 -3.28,-3.25 z"
   id="path2790"
   style="fill:#7da1b5" />

				</g>

				<g
   id="g2796">
					<path
   class="st12"
   d="m 309.78,70.27 c -0.33,-1.43 -0.71,-3.04 -0.96,-4.68 -0.3,-1.94 1.08,-3.6 2.85,-3.69 1.79,-0.1 3.31,1.14 3.56,2.7 0.21,1.36 0.53,2.72 0.88,4.26 0.43,1.81 -0.78,3.65 -2.55,3.87 -1.78,0.2 -3.4,-0.83 -3.78,-2.46 z"
   id="path2794"
   style="fill:#7da1b5" />

				</g>

				<g
   id="g2800">
					<path
   class="st12"
   d="m 310.72,81.64 c 0.05,-1.43 0.05,-2.88 0,-4.31 -0.05,-1.64 1.23,-3.1 3,-3.33 1.77,-0.24 3.42,1.18 3.48,3.08 0.06,1.61 0.06,3.2 0,4.82 -0.06,1.9 -1.71,3.32 -3.48,3.08 -1.77,-0.24 -3.05,-1.7 -3,-3.34 z"
   id="path2798"
   style="fill:#7da1b5" />

				</g>

				<g
   id="g2804">
					<path
   class="st12"
   d="m 308.82,93.38 c 0.25,-1.65 0.63,-3.25 0.96,-4.68 0.39,-1.64 2,-2.67 3.77,-2.44 1.77,0.22 2.98,2.06 2.55,3.87 -0.35,1.53 -0.67,2.89 -0.88,4.26 -0.24,1.56 -1.77,2.8 -3.56,2.7 -1.77,-0.11 -3.14,-1.76 -2.84,-3.71 z"
   id="path2802"
   style="fill:#7da1b5" />

				</g>

				<g
   id="g2808">
					<path
   class="st12"
   d="m 308.59,106.5 c -0.17,-1.64 -0.27,-3.28 -0.27,-4.87 -0.03,-1.88 1.5,-3.35 3.28,-3.26 1.78,0.09 3.18,1.51 3.2,3.17 0,1.45 0.09,2.86 0.24,4.24 0.16,1.57 -0.98,3.15 -2.73,3.53 -1.74,0.39 -3.51,-0.86 -3.72,-2.81 z"
   id="path2806"
   style="fill:#7da1b5" />

				</g>

				<g
   id="g2812">
					<path
   class="st12"
   d="m 310.64,118.49 c -0.09,-1.41 -0.28,-2.76 -0.55,-4.13 -0.32,-1.57 0.74,-3.39 2.49,-3.77 1.73,-0.37 3.49,0.62 3.87,2.51 0.32,1.61 0.55,3.29 0.65,4.91 0.13,1.92 -1.33,3.44 -3.11,3.45 -1.78,0.01 -3.24,-1.36 -3.35,-2.97 z"
   id="path2810"
   style="fill:#7da1b5" />

				</g>

			</g>
    </g>
  </g>
</svg>
