<?xml version="1.0" encoding="UTF-8" standalone="no"?>
<!-- Created with Inkscape (http://www.inkscape.org/) -->

<svg
   width="50mm"
   height="100.00042mm"
   viewBox="0 0 50 100.00042"
   version="1.1"
   id="svg2205"
   inkscape:version="1.2 (dc2aeda, 2022-05-15)"
   sodipodi:docname="vibrto.svg"
   xmlns:inkscape="http://www.inkscape.org/namespaces/inkscape"
   xmlns:sodipodi="http://sodipodi.sourceforge.net/DTD/sodipodi-0.dtd"
   xmlns="http://www.w3.org/2000/svg"
   xmlns:svg="http://www.w3.org/2000/svg">
  <sodipodi:namedview
     id="namedview2207"
     pagecolor="#ffffff"
     bordercolor="#000000"
     borderopacity="0.25"
     inkscape:showpageshadow="2"
     inkscape:pageopacity="0.0"
     inkscape:pagecheckerboard="0"
     inkscape:deskcolor="#d1d1d1"
     inkscape:document-units="mm"
     showgrid="false"
     inkscape:zoom="0.64199273"
     inkscape:cx="333.33711"
     inkscape:cy="281.93466"
     inkscape:window-width="1440"
     inkscape:window-height="798"
     inkscape:window-x="1920"
     inkscape:window-y="25"
     inkscape:window-maximized="0"
     inkscape:current-layer="layer1" />
  <defs
     id="defs2202">
    <inkscape:path-effect
       effect="spiro"
       id="path-effect2774"
       is_visible="true"
       lpeversion="1" />
    <inkscape:path-effect
       effect="spiro"
       id="path-effect2740"
       is_visible="true"
       lpeversion="1" />
    <inkscape:path-effect
       effect="spiro"
       id="path-effect2568"
       is_visible="true"
       lpeversion="1" />
    <inkscape:path-effect
       effect="spiro"
       id="path-effect2740-0"
       is_visible="true"
       lpeversion="1" />
  </defs>
  <g
     inkscape:label="Layer 1"
     inkscape:groupmode="layer"
     id="layer1"
     transform="translate(-24.752378,-17.616871)">
    <g
       id="g3540"
       transform="matrix(0.62401479,0,0,0.76105275,-31.579595,-8.727276)">
      <path
         style="fill:#bdf2f5;stroke:#000000;stroke-width:0.2"
         d="m 113.67731,40.72691 c -1.81808,2.188321 -3.03971,4.850721 -3.62084,7.635762 -0.58113,2.785042 -0.53005,5.688742 0.0404,8.475981 0.93476,4.566863 3.21761,8.740623 5.71283,12.678125 2.49521,3.937501 5.24299,7.737385 7.26608,11.937042 2.18816,4.542331 3.49527,9.534413 3.57473,14.575695 0.0795,5.041285 -1.09115,10.127175 -3.57473,14.514955 -3.56145,6.29206 -9.52529,10.79442 -15.30137,15.14308 -5.77608,4.34866 -11.702411,8.92528 -15.13193,15.29021 -1.195273,2.21834 -2.06524,4.64683 -2.237743,7.16078 -0.250218,3.64652 1.014627,7.32993 3.252416,10.21992 2.23779,2.88999 5.40326,5.00231 8.851347,6.21493 6.89616,2.42526 14.59115,1.27686 21.46237,-1.2182 14.08415,-5.1142 25.80156,-15.66244 34.01369,-28.19556 9.12964,-13.9334 14.24201,-30.98717 11.63626,-47.440133 -2.47966,-15.656769 -11.62303,-29.528596 -22.37743,-41.174458 -2.46292,-2.667079 -5.03733,-5.260414 -7.99149,-7.370441 -2.95416,-2.110027 -6.31979,-3.730534 -9.91044,-4.265817 -2.87907,-0.429203 -5.86646,-0.144047 -8.59956,0.857658 -2.7331,1.001705 -5.20447,2.721494 -7.06464,4.960471 z"
         id="path2738"
         inkscape:path-effect="#path-effect2740"
         inkscape:original-d="m 113.67731,40.72691 c -5.22166,1.939113 -2.38666,10.741427 -3.58039,16.111743 -1.19373,5.370317 8.65287,16.410377 12.97891,24.615167 4.32603,8.20479 2.6e-4,19.39403 0,29.09065 -2.7e-4,9.69662 -20.2886,20.28913 -30.4333,30.43329 -10.144696,10.14417 -1.491562,4.77412 -2.237743,7.16078 -0.746177,2.38666 22.377693,10.1447 33.566133,15.21665 11.18845,5.07195 22.67606,-18.79677 34.01369,-28.19556 11.33762,-9.39878 7.75777,-31.62649 11.63626,-47.440133 3.87848,-15.813643 -14.91802,-27.449372 -22.37743,-41.174458 -7.4594,-13.725083 -11.93436,-7.757242 -17.90193,-11.636258 -5.96758,-3.87902 -10.44254,3.879016 -15.6642,5.818129 z" />
      <path
         style="fill:#1ca8ab;fill-opacity:1;stroke:#000000;stroke-width:0.2"
         d="m 98.08652,149.60255 c 0.359312,2.75632 1.92549,5.3018 4.12128,7.00618 1.92888,1.4972 4.302,2.36125 6.71981,2.70235 2.41782,0.3411 4.88504,0.17797 7.29255,-0.22958 11.06212,-1.87264 20.68807,-8.78347 28.43685,-16.89726 8.48115,-8.88066 15.32482,-19.69012 17.72152,-31.73387 1.84399,-9.26634 0.98622,-18.951496 -1.64852,-28.024723 -2.39219,-8.237956 -6.23039,-16.036083 -11.12746,-23.07918 -4.03577,-5.804349 -8.94427,-11.225839 -15.24875,-14.424491 -2.0615,-1.045926 -4.2803,-1.84775 -6.58478,-2.029741 -2.30448,-0.18199 -4.70757,0.294785 -6.60332,1.617613 -1.47389,1.028456 -2.58873,2.531828 -3.26536,4.19683 -0.67663,1.665002 -0.92715,3.486295 -0.85592,5.282119 0.15052,3.794772 1.70093,7.405835 3.64112,10.670588 1.94019,3.264754 4.28497,6.273812 6.24996,9.523698 3.97849,6.580006 6.35086,14.157372 6.59405,21.842796 0.20827,6.581911 -1.17936,13.290871 -4.53341,18.957901 -4.59387,7.76183 -12.38718,12.96993 -19.78216,18.13364 -2.86586,2.00115 -5.74798,4.07041 -7.93853,6.79424 -1.09527,1.36192 -2.007498,2.88239 -2.589039,4.5305 -0.581542,1.64811 -0.825808,3.42736 -0.599891,5.16039 z"
         id="path2772"
         inkscape:path-effect="#path-effect2774"
         inkscape:original-d="m 98.08652,149.60255 c -3.709419,5.49478 2.74779,4.67105 4.12128,7.00618 1.3735,2.33513 9.34184,1.64878 14.01236,2.47277 4.67052,0.82399 18.95816,-11.26457 28.43685,-16.89726 9.47868,-5.63268 11.81461,-21.15565 17.72152,-31.73387 5.9069,-10.578225 -1.09875,-18.682886 -1.64852,-28.024723 -0.54977,-9.341839 -7.41804,-15.385856 -11.12746,-23.07918 -3.70942,-7.693327 -10.16557,-9.616062 -15.24875,-14.424491 -5.08317,-4.808426 -8.7918,-0.274486 -13.1881,-0.412128 -4.3963,-0.137639 -2.74726,6.319565 -4.12128,9.478949 -1.37403,3.159387 6.59431,13.463122 9.89108,20.194286 3.29676,6.731161 4.3963,14.562127 6.59405,21.842796 2.19775,7.280671 -3.02201,12.638861 -4.53341,18.957901 -1.5114,6.31903 -13.18784,12.08936 -19.78216,18.13364 -6.59431,6.04428 -7.41804,10.99035 -11.12746,16.48513 z" />
    </g>
  </g>
</svg>
